%TF.GenerationSoftware,KiCad,Pcbnew,8.0.4*%
%TF.CreationDate,2024-08-02T18:27:15+02:00*%
%TF.ProjectId,PiChannelF,50694368-616e-46e6-956c-462e6b696361,1*%
%TF.SameCoordinates,Original*%
%TF.FileFunction,Profile,NP*%
%FSLAX46Y46*%
G04 Gerber Fmt 4.6, Leading zero omitted, Abs format (unit mm)*
G04 Created by KiCad (PCBNEW 8.0.4) date 2024-08-02 18:27:15*
%MOMM*%
%LPD*%
G01*
G04 APERTURE LIST*
%TA.AperFunction,Profile*%
%ADD10C,0.050000*%
%TD*%
G04 APERTURE END LIST*
D10*
X60000000Y-25000000D02*
X60000000Y-122000000D01*
X132914000Y-142802000D02*
X132775000Y-126500000D01*
X67500000Y-40425000D02*
G75*
G02*
X62500000Y-40425000I-2500000J0D01*
G01*
X62500000Y-40425000D02*
G75*
G02*
X67500000Y-40425000I2500000J0D01*
G01*
X134750000Y-119000000D02*
G75*
G02*
X129750000Y-119000000I-2500000J0D01*
G01*
X129750000Y-119000000D02*
G75*
G02*
X134750000Y-119000000I2500000J0D01*
G01*
X60000000Y-122000000D02*
X64515000Y-126500000D01*
X137000000Y-122000000D02*
X137000000Y-25000000D01*
X134750000Y-40425000D02*
G75*
G02*
X129750000Y-40425000I-2500000J0D01*
G01*
X129750000Y-40425000D02*
G75*
G02*
X134750000Y-40425000I2500000J0D01*
G01*
X132775000Y-126500000D02*
X137000000Y-122000000D01*
X64515000Y-126500000D02*
X64544000Y-142025000D01*
X67500000Y-119000000D02*
G75*
G02*
X62500000Y-119000000I-2500000J0D01*
G01*
X62500000Y-119000000D02*
G75*
G02*
X67500000Y-119000000I2500000J0D01*
G01*
X137000000Y-25000000D02*
X60000000Y-25000000D01*
%TO.C,E1*%
X64588000Y-154613000D02*
X64544000Y-142025000D01*
X66366000Y-156525000D02*
X64588000Y-154613000D01*
X95576000Y-156525000D02*
X66366000Y-156525000D01*
X97989000Y-145215000D02*
X97989000Y-154867000D01*
X97989000Y-154867000D02*
X95576000Y-156525000D01*
X98370000Y-143945000D02*
X97989000Y-145215000D01*
X99259000Y-143945000D02*
X98370000Y-143945000D01*
X99640000Y-145215000D02*
X99264000Y-143945000D01*
X99640000Y-154867000D02*
X99640000Y-145215000D01*
X101672000Y-156518000D02*
X99640000Y-154867000D01*
X131771000Y-156525000D02*
X101672000Y-156525000D01*
X132914000Y-142802000D02*
X132914000Y-154867000D01*
X132914000Y-154867000D02*
X131771000Y-156525000D01*
%TD*%
M02*
