%TF.GenerationSoftware,KiCad,Pcbnew,8.0.4*%
%TF.CreationDate,2024-08-11T18:13:53+02:00*%
%TF.ProjectId,PiChannelF,50694368-616e-46e6-956c-462e6b696361,1*%
%TF.SameCoordinates,Original*%
%TF.FileFunction,Copper,L1,Top*%
%TF.FilePolarity,Positive*%
%FSLAX46Y46*%
G04 Gerber Fmt 4.6, Leading zero omitted, Abs format (unit mm)*
G04 Created by KiCad (PCBNEW 8.0.4) date 2024-08-11 18:13:53*
%MOMM*%
%LPD*%
G01*
G04 APERTURE LIST*
G04 Aperture macros list*
%AMRoundRect*
0 Rectangle with rounded corners*
0 $1 Rounding radius*
0 $2 $3 $4 $5 $6 $7 $8 $9 X,Y pos of 4 corners*
0 Add a 4 corners polygon primitive as box body*
4,1,4,$2,$3,$4,$5,$6,$7,$8,$9,$2,$3,0*
0 Add four circle primitives for the rounded corners*
1,1,$1+$1,$2,$3*
1,1,$1+$1,$4,$5*
1,1,$1+$1,$6,$7*
1,1,$1+$1,$8,$9*
0 Add four rect primitives between the rounded corners*
20,1,$1+$1,$2,$3,$4,$5,0*
20,1,$1+$1,$4,$5,$6,$7,0*
20,1,$1+$1,$6,$7,$8,$9,0*
20,1,$1+$1,$8,$9,$2,$3,0*%
G04 Aperture macros list end*
%TA.AperFunction,ComponentPad*%
%ADD10R,1.600000X1.600000*%
%TD*%
%TA.AperFunction,ComponentPad*%
%ADD11O,1.600000X1.600000*%
%TD*%
%TA.AperFunction,ComponentPad*%
%ADD12R,1.800000X1.800000*%
%TD*%
%TA.AperFunction,ComponentPad*%
%ADD13C,1.800000*%
%TD*%
%TA.AperFunction,ComponentPad*%
%ADD14C,1.600000*%
%TD*%
%TA.AperFunction,SMDPad,CuDef*%
%ADD15R,1.900000X8.100000*%
%TD*%
%TA.AperFunction,SMDPad,CuDef*%
%ADD16RoundRect,0.233760X-0.716240X-0.766240X0.716240X-0.766240X0.716240X0.766240X-0.716240X0.766240X0*%
%TD*%
%TA.AperFunction,ComponentPad*%
%ADD17R,1.700000X1.700000*%
%TD*%
%TA.AperFunction,ComponentPad*%
%ADD18O,1.700000X1.700000*%
%TD*%
%TA.AperFunction,ComponentPad*%
%ADD19C,2.100000*%
%TD*%
%TA.AperFunction,ComponentPad*%
%ADD20C,1.750000*%
%TD*%
%TA.AperFunction,ViaPad*%
%ADD21C,0.800000*%
%TD*%
%TA.AperFunction,Conductor*%
%ADD22C,0.250000*%
%TD*%
G04 APERTURE END LIST*
D10*
%TO.P,D1,1,K*%
%TO.N,Net-(D1-K)*%
X75850000Y-58300000D03*
D11*
%TO.P,D1,2,A*%
%TO.N,+5V*%
X75850000Y-65920000D03*
%TD*%
D12*
%TO.P,D2,1,K*%
%TO.N,GND*%
X75135000Y-29275000D03*
D13*
%TO.P,D2,2,A*%
%TO.N,Net-(D2-A)*%
X77675000Y-29275000D03*
%TD*%
D14*
%TO.P,R1,1*%
%TO.N,Net-(D2-A)*%
X74005000Y-38225000D03*
D11*
%TO.P,R1,2*%
%TO.N,LED*%
X81625000Y-38225000D03*
%TD*%
D15*
%TO.P,E1,*%
%TO.N,*%
X68244000Y-152025000D03*
X70814000Y-151925000D03*
X73384000Y-151925000D03*
X75954000Y-151925000D03*
X78524000Y-151925000D03*
X81075000Y-151925000D03*
X83664000Y-151925000D03*
X86234000Y-151925000D03*
X88804000Y-151925000D03*
X91374000Y-151925000D03*
X93844000Y-151925000D03*
X104000000Y-151925000D03*
X106570000Y-151925000D03*
X109140000Y-151925000D03*
X111682000Y-151925000D03*
X114299000Y-151925000D03*
X116850000Y-151925000D03*
X119406000Y-151925000D03*
X122023000Y-151925000D03*
X124560000Y-151925000D03*
X127130000Y-151925000D03*
X129700000Y-151925000D03*
D16*
%TO.P,E1,1,+12V*%
%TO.N,unconnected-(E1-+12V-Pad1)*%
X68244000Y-147025000D03*
%TO.P,E1,2,NC*%
%TO.N,unconnected-(E1-NC-Pad2)*%
X70814000Y-147025000D03*
%TO.P,E1,3,+5V*%
%TO.N,+5V*%
X73384000Y-147025000D03*
%TO.P,E1,4,+5V*%
X75954000Y-147025000D03*
%TO.P,E1,5,D7*%
%TO.N,D7*%
X78524000Y-147025000D03*
%TO.P,E1,6,D6*%
%TO.N,D6*%
X81075000Y-147025000D03*
%TO.P,E1,7,D5*%
%TO.N,D5*%
X83664000Y-147025000D03*
%TO.P,E1,8,WRITE*%
%TO.N,WRITE*%
X86234000Y-147025000D03*
%TO.P,E1,9,D4*%
%TO.N,D4*%
X88804000Y-147025000D03*
%TO.P,E1,10,PHI*%
%TO.N,PHI*%
X91374000Y-147025000D03*
%TO.P,E1,11,ROMC4*%
%TO.N,ROMC4*%
X93844000Y-147025000D03*
%TO.P,E1,12,D3*%
%TO.N,D3*%
X104000000Y-147025000D03*
%TO.P,E1,13,ROMC3*%
%TO.N,ROMC3*%
X106620000Y-147025000D03*
%TO.P,E1,14,D2*%
%TO.N,D2*%
X109140000Y-147025000D03*
%TO.P,E1,15,ROMC2*%
%TO.N,ROMC2*%
X111682000Y-147025000D03*
%TO.P,E1,16,ROMC1*%
%TO.N,ROMC1*%
X114299000Y-147025000D03*
%TO.P,E1,17,ROMC0*%
%TO.N,ROMC0*%
X116850000Y-147025000D03*
%TO.P,E1,18,~{INTREQ}*%
%TO.N,~{INTREQ}*%
X119406000Y-147025000D03*
%TO.P,E1,19,D1*%
%TO.N,D1*%
X122023000Y-147025000D03*
%TO.P,E1,20,D0*%
%TO.N,D0*%
X124560000Y-147025000D03*
%TO.P,E1,21,GND*%
%TO.N,GND*%
X127130000Y-147025000D03*
%TO.P,E1,22,GND*%
X129700000Y-147025000D03*
%TD*%
D17*
%TO.P,J1,1,Pin_1*%
%TO.N,D0*%
X108825000Y-28085000D03*
D18*
%TO.P,J1,2,Pin_2*%
%TO.N,D1*%
X108825000Y-30625000D03*
%TO.P,J1,3,Pin_3*%
%TO.N,D2*%
X108825000Y-33165000D03*
%TO.P,J1,4,Pin_4*%
%TO.N,D3*%
X108825000Y-35705000D03*
%TO.P,J1,5,Pin_5*%
%TO.N,D4*%
X108825000Y-38245000D03*
%TO.P,J1,6,Pin_6*%
%TO.N,GND*%
X108825000Y-40785000D03*
%TO.P,J1,7,Pin_7*%
%TO.N,D5*%
X108825000Y-43325000D03*
%TO.P,J1,8,Pin_8*%
%TO.N,D6*%
X108825000Y-45865000D03*
%TO.P,J1,9,Pin_9*%
%TO.N,D7*%
X108825000Y-48405000D03*
%TO.P,J1,10,Pin_10*%
%TO.N,ROMC0*%
X108825000Y-50945000D03*
%TO.P,J1,11,Pin_11*%
%TO.N,ROMC1*%
X108825000Y-53485000D03*
%TO.P,J1,12,Pin_12*%
%TO.N,ROMC2*%
X108825000Y-56025000D03*
%TO.P,J1,13,Pin_13*%
%TO.N,ROMC3*%
X108825000Y-58565000D03*
%TO.P,J1,14,Pin_14*%
%TO.N,ROMC4*%
X108825000Y-61105000D03*
%TO.P,J1,15,Pin_15*%
%TO.N,GND*%
X108825000Y-63645000D03*
%TO.P,J1,16,Pin_16*%
%TO.N,~{INTREQ}*%
X108825000Y-66185000D03*
%TO.P,J1,17,Pin_17*%
%TO.N,PHI*%
X108825000Y-68725000D03*
%TO.P,J1,18,Pin_18*%
%TO.N,WRITE*%
X108825000Y-71265000D03*
%TO.P,J1,19,Pin_19*%
%TO.N,unconnected-(J1-Pin_19-Pad19)*%
X108825000Y-73805000D03*
%TO.P,J1,20,Pin_20*%
%TO.N,unconnected-(J1-Pin_20-Pad20)*%
X108825000Y-76345000D03*
%TD*%
D19*
%TO.P,SW1,*%
%TO.N,*%
X127725000Y-30690000D03*
X120715000Y-30690000D03*
D20*
%TO.P,SW1,1,1*%
%TO.N,RST*%
X126475000Y-28200000D03*
%TO.P,SW1,2,2*%
%TO.N,GND*%
X121975000Y-28200000D03*
%TD*%
D17*
%TO.P,J2,1,Pin_1*%
%TO.N,unconnected-(J2-Pin_1-Pad1)*%
X91050000Y-28085000D03*
D18*
%TO.P,J2,2,Pin_2*%
%TO.N,Net-(D1-K)*%
X91050000Y-30625000D03*
%TO.P,J2,3,Pin_3*%
%TO.N,GND*%
X91050000Y-33165000D03*
%TO.P,J2,4,Pin_4*%
%TO.N,unconnected-(J2-Pin_4-Pad4)*%
X91050000Y-35705000D03*
%TO.P,J2,5,Pin_5*%
%TO.N,unconnected-(J2-Pin_5-Pad5)*%
X91050000Y-38245000D03*
%TO.P,J2,6,Pin_6*%
%TO.N,GND*%
X91050000Y-40785000D03*
%TO.P,J2,7,Pin_7*%
%TO.N,RST*%
X91050000Y-43325000D03*
%TO.P,J2,8,Pin_8*%
%TO.N,unconnected-(J2-Pin_8-Pad8)*%
X91050000Y-45865000D03*
%TO.P,J2,9,Pin_9*%
%TO.N,unconnected-(J2-Pin_9-Pad9)*%
X91050000Y-48405000D03*
%TO.P,J2,10,Pin_10*%
%TO.N,unconnected-(J2-Pin_10-Pad10)*%
X91050000Y-50945000D03*
%TO.P,J2,11,Pin_11*%
%TO.N,unconnected-(J2-Pin_11-Pad11)*%
X91050000Y-53485000D03*
%TO.P,J2,12,Pin_12*%
%TO.N,GND*%
X91050000Y-56025000D03*
%TO.P,J2,13,Pin_13*%
%TO.N,LED*%
X91050000Y-58565000D03*
%TO.P,J2,14,Pin_14*%
%TO.N,unconnected-(J2-Pin_14-Pad14)*%
X91050000Y-61105000D03*
%TO.P,J2,15,Pin_15*%
%TO.N,unconnected-(J2-Pin_15-Pad15)*%
X91050000Y-63645000D03*
%TO.P,J2,16,Pin_16*%
%TO.N,unconnected-(J2-Pin_16-Pad16)*%
X91050000Y-66185000D03*
%TO.P,J2,17,Pin_17*%
%TO.N,unconnected-(J2-Pin_17-Pad17)*%
X91050000Y-68725000D03*
%TO.P,J2,18,Pin_18*%
%TO.N,unconnected-(J2-Pin_18-Pad18)*%
X91050000Y-71265000D03*
%TO.P,J2,19,Pin_19*%
%TO.N,unconnected-(J2-Pin_19-Pad19)*%
X91050000Y-73805000D03*
%TO.P,J2,20,Pin_20*%
%TO.N,unconnected-(J2-Pin_20-Pad20)*%
X91050000Y-76345000D03*
%TD*%
D21*
%TO.N,PHI*%
X102785000Y-76824300D03*
%TO.N,~{INTREQ}*%
X117388000Y-74747500D03*
%TO.N,ROMC4*%
X103618000Y-62152700D03*
%TO.N,WRITE*%
X87805900Y-93099400D03*
%TO.N,D2*%
X110119000Y-59368100D03*
X112032000Y-50863000D03*
%TO.N,D7*%
X78524000Y-94809000D03*
%TD*%
D22*
%TO.N,LED*%
X81625000Y-48331000D02*
X81625000Y-38225000D01*
X90682300Y-57388300D02*
X81625000Y-48331000D01*
X91050000Y-57388300D02*
X90682300Y-57388300D01*
X91050000Y-58565000D02*
X91050000Y-57388300D01*
%TO.N,PHI*%
X102785000Y-135614000D02*
X102785000Y-76824300D01*
X91374000Y-147025000D02*
X102785000Y-135614000D01*
%TO.N,ROMC2*%
X111682000Y-59691000D02*
X111682000Y-147025000D01*
X109193000Y-57201700D02*
X111682000Y-59691000D01*
X108825000Y-57201700D02*
X109193000Y-57201700D01*
X108825000Y-56025000D02*
X108825000Y-57201700D01*
%TO.N,ROMC1*%
X114299000Y-59768000D02*
X114299000Y-147025000D01*
X109193000Y-54661700D02*
X114299000Y-59768000D01*
X108825000Y-54661700D02*
X109193000Y-54661700D01*
X108825000Y-53485000D02*
X108825000Y-54661700D01*
%TO.N,~{INTREQ}*%
X117388000Y-145006000D02*
X117388000Y-74747500D01*
X119406000Y-147025000D02*
X117388000Y-145006000D01*
%TO.N,ROMC4*%
X103618000Y-137251000D02*
X93844000Y-147025000D01*
X103618000Y-62152700D02*
X103618000Y-137251000D01*
%TO.N,ROMC3*%
X108825000Y-59741700D02*
X108825000Y-58565000D01*
X108457000Y-59741700D02*
X108825000Y-59741700D01*
X106620000Y-61579000D02*
X108457000Y-59741700D01*
X106620000Y-147025000D02*
X106620000Y-61579000D01*
%TO.N,WRITE*%
X87805900Y-145453000D02*
X87805900Y-93099400D01*
X86234000Y-147025000D02*
X87805900Y-145453000D01*
%TO.N,ROMC0*%
X116661000Y-146836000D02*
X116850000Y-147025000D01*
X116661000Y-59589800D02*
X116661000Y-146836000D01*
X109193000Y-52121700D02*
X116661000Y-59589800D01*
X108825000Y-52121700D02*
X109193000Y-52121700D01*
X108825000Y-50945000D02*
X108825000Y-52121700D01*
%TO.N,Net-(D2-A)*%
X77675000Y-34555000D02*
X74005000Y-38225000D01*
X77675000Y-29275000D02*
X77675000Y-34555000D01*
%TO.N,D2*%
X112032000Y-37181300D02*
X112032000Y-50863000D01*
X109193000Y-34341700D02*
X112032000Y-37181300D01*
X108825000Y-34341700D02*
X109193000Y-34341700D01*
X108825000Y-33165000D02*
X108825000Y-34341700D01*
X110119000Y-146046000D02*
X110119000Y-59368100D01*
X109140000Y-147025000D02*
X110119000Y-146046000D01*
%TO.N,D7*%
X78524000Y-147025000D02*
X78524000Y-94809000D01*
%TO.N,D4*%
X108825000Y-39421700D02*
X108825000Y-38245000D01*
X109159000Y-39421700D02*
X108825000Y-39421700D01*
X110453000Y-40715800D02*
X109159000Y-39421700D01*
X110453000Y-45978900D02*
X110453000Y-40715800D01*
X109297000Y-47135000D02*
X110453000Y-45978900D01*
X108371000Y-47135000D02*
X109297000Y-47135000D01*
X102620000Y-52885200D02*
X108371000Y-47135000D01*
X102620000Y-75954500D02*
X102620000Y-52885200D01*
X88804000Y-89770900D02*
X102620000Y-75954500D01*
X88804000Y-147025000D02*
X88804000Y-89770900D01*
%TO.N,D5*%
X83664000Y-94013900D02*
X83664000Y-147025000D01*
X94887100Y-82790800D02*
X83664000Y-94013900D01*
X94887100Y-58071900D02*
X94887100Y-82790800D01*
X108457000Y-44501700D02*
X94887100Y-58071900D01*
X108825000Y-44501700D02*
X108457000Y-44501700D01*
X108825000Y-43325000D02*
X108825000Y-44501700D01*
%TO.N,D3*%
X104345000Y-146680000D02*
X104000000Y-147025000D01*
X104345000Y-53748600D02*
X104345000Y-146680000D01*
X108418000Y-49675000D02*
X104345000Y-53748600D01*
X109230000Y-49675000D02*
X108418000Y-49675000D01*
X110905000Y-48000000D02*
X109230000Y-49675000D01*
X110905000Y-38594000D02*
X110905000Y-48000000D01*
X109193000Y-36881700D02*
X110905000Y-38594000D01*
X108825000Y-36881700D02*
X109193000Y-36881700D01*
X108825000Y-35705000D02*
X108825000Y-36881700D01*
%TO.N,D6*%
X110002000Y-44688300D02*
X108825000Y-45865000D01*
X110002000Y-42747100D02*
X110002000Y-44688300D01*
X109396000Y-42141500D02*
X110002000Y-42747100D01*
X108333000Y-42141500D02*
X109396000Y-42141500D01*
X92841900Y-57632700D02*
X108333000Y-42141500D01*
X92841900Y-76244200D02*
X92841900Y-57632700D01*
X81075000Y-88011100D02*
X92841900Y-76244200D01*
X81075000Y-147025000D02*
X81075000Y-88011100D01*
%TO.N,D1*%
X122023000Y-44632000D02*
X122023000Y-147025000D01*
X109193000Y-31801700D02*
X122023000Y-44632000D01*
X108825000Y-31801700D02*
X109193000Y-31801700D01*
X108825000Y-30625000D02*
X108825000Y-31801700D01*
%TO.N,D0*%
X124560000Y-44630900D02*
X124560000Y-147025000D01*
X109191000Y-29261700D02*
X124560000Y-44630900D01*
X108825000Y-29261700D02*
X109191000Y-29261700D01*
X108825000Y-28085000D02*
X108825000Y-29261700D01*
%TO.N,+5V*%
X75850000Y-147025000D02*
X73384000Y-147025000D01*
X75954000Y-147025000D02*
X75850000Y-147025000D01*
X75850000Y-65920000D02*
X75850000Y-147025000D01*
%TO.N,GND*%
X92238300Y-40785000D02*
X91050000Y-40785000D01*
X129700000Y-147025000D02*
X127130000Y-147025000D01*
X127130000Y-33355000D02*
X127130000Y-147025000D01*
X121975000Y-28200000D02*
X127130000Y-33355000D01*
X108825000Y-40785000D02*
X92238300Y-40785000D01*
X91050000Y-34341700D02*
X91050000Y-33165000D01*
X91417700Y-34341700D02*
X91050000Y-34341700D01*
X92238300Y-35162300D02*
X91417700Y-34341700D01*
X92238300Y-40785000D02*
X92238300Y-35162300D01*
X91050000Y-41961700D02*
X91050000Y-40785000D01*
X90682200Y-41961700D02*
X91050000Y-41961700D01*
X89873300Y-42770600D02*
X90682200Y-41961700D01*
X89873300Y-54039300D02*
X89873300Y-42770600D01*
X90682300Y-54848300D02*
X89873300Y-54039300D01*
X91050000Y-54848300D02*
X90682300Y-54848300D01*
X91050000Y-56025000D02*
X91050000Y-54848300D01*
%TD*%
M02*
