%TF.GenerationSoftware,KiCad,Pcbnew,8.0.4*%
%TF.CreationDate,2024-08-02T18:27:15+02:00*%
%TF.ProjectId,PiChannelF,50694368-616e-46e6-956c-462e6b696361,1*%
%TF.SameCoordinates,Original*%
%TF.FileFunction,Soldermask,Bot*%
%TF.FilePolarity,Negative*%
%FSLAX46Y46*%
G04 Gerber Fmt 4.6, Leading zero omitted, Abs format (unit mm)*
G04 Created by KiCad (PCBNEW 8.0.4) date 2024-08-02 18:27:15*
%MOMM*%
%LPD*%
G01*
G04 APERTURE LIST*
%ADD10C,1.600000*%
%ADD11O,1.600000X1.600000*%
%ADD12R,1.800000X1.800000*%
%ADD13C,1.800000*%
%ADD14R,1.600000X1.600000*%
%ADD15R,1.700000X1.700000*%
%ADD16O,1.700000X1.700000*%
%ADD17C,2.100000*%
%ADD18C,1.750000*%
G04 APERTURE END LIST*
D10*
%TO.C,R1*%
X74005000Y-38225000D03*
D11*
X81625000Y-38225000D03*
%TD*%
D12*
%TO.C,D2*%
X75135000Y-29275000D03*
D13*
X77675000Y-29275000D03*
%TD*%
D14*
%TO.C,D1*%
X75850000Y-58300000D03*
D11*
X75850000Y-65920000D03*
%TD*%
D15*
%TO.C,J1*%
X108825000Y-28085000D03*
D16*
X108825000Y-30625000D03*
X108825000Y-33165000D03*
X108825000Y-35705000D03*
X108825000Y-38245000D03*
X108825000Y-40785000D03*
X108825000Y-43325000D03*
X108825000Y-45865000D03*
X108825000Y-48405000D03*
X108825000Y-50945000D03*
X108825000Y-53485000D03*
X108825000Y-56025000D03*
X108825000Y-58565000D03*
X108825000Y-61105000D03*
X108825000Y-63645000D03*
X108825000Y-66185000D03*
X108825000Y-68725000D03*
X108825000Y-71265000D03*
X108825000Y-73805000D03*
X108825000Y-76345000D03*
%TD*%
D17*
%TO.C,SW1*%
X127725000Y-30690000D03*
X120715000Y-30690000D03*
D18*
X126475000Y-28200000D03*
X121975000Y-28200000D03*
%TD*%
D15*
%TO.C,J2*%
X91050000Y-28085000D03*
D16*
X91050000Y-30625000D03*
X91050000Y-33165000D03*
X91050000Y-35705000D03*
X91050000Y-38245000D03*
X91050000Y-40785000D03*
X91050000Y-43325000D03*
X91050000Y-45865000D03*
X91050000Y-48405000D03*
X91050000Y-50945000D03*
X91050000Y-53485000D03*
X91050000Y-56025000D03*
X91050000Y-58565000D03*
X91050000Y-61105000D03*
X91050000Y-63645000D03*
X91050000Y-66185000D03*
X91050000Y-68725000D03*
X91050000Y-71265000D03*
X91050000Y-73805000D03*
X91050000Y-76345000D03*
%TD*%
M02*
