M48
; DRILL file {KiCad 8.0.4} date 2024-08-02T18:27:15+0200
; FORMAT={-:-/ absolute / inch / decimal}
; #@! TF.CreationDate,2024-08-02T18:27:15+02:00
; #@! TF.GenerationSoftware,Kicad,Pcbnew,8.0.4
; #@! TF.FileFunction,Plated,1,2,PTH
FMAT,2
INCH
; #@! TA.AperFunction,Plated,PTH,ViaDrill
T1C0.0157
; #@! TA.AperFunction,Plated,PTH,ComponentDrill
T2C0.0315
; #@! TA.AperFunction,Plated,PTH,ComponentDrill
T3C0.0354
; #@! TA.AperFunction,Plated,PTH,ComponentDrill
T4C0.0390
; #@! TA.AperFunction,Plated,PTH,ComponentDrill
T5C0.0394
; #@! TA.AperFunction,Plated,PTH,ComponentDrill
T6C0.0512
%
G90
G05
T1
X3.0915Y-3.7326
X3.4569Y-3.6653
X4.0466Y-3.0246
X4.0794Y-2.447
X4.3354Y-2.3373
X4.4107Y-2.0025
X4.6216Y-2.9428
T2
X2.9136Y-1.5049
X2.9862Y-2.2953
X2.9862Y-2.5953
X3.2136Y-1.5049
T3
X2.9581Y-1.1526
X3.0581Y-1.1526
T4
X4.8022Y-1.1102
X4.9793Y-1.1102
T5
X3.5846Y-1.1057
X3.5846Y-1.2057
X3.5846Y-1.3057
X3.5846Y-1.4057
X3.5846Y-1.5057
X3.5846Y-1.6057
X3.5846Y-1.7057
X3.5846Y-1.8057
X3.5846Y-1.9057
X3.5846Y-2.0057
X3.5846Y-2.1057
X3.5846Y-2.2057
X3.5846Y-2.3057
X3.5846Y-2.4057
X3.5846Y-2.5057
X3.5846Y-2.6057
X3.5846Y-2.7057
X3.5846Y-2.8057
X3.5846Y-2.9057
X3.5846Y-3.0057
X4.2844Y-1.1057
X4.2844Y-1.2057
X4.2844Y-1.3057
X4.2844Y-1.4057
X4.2844Y-1.5057
X4.2844Y-1.6057
X4.2844Y-1.7057
X4.2844Y-1.8057
X4.2844Y-1.9057
X4.2844Y-2.0057
X4.2844Y-2.1057
X4.2844Y-2.2057
X4.2844Y-2.3057
X4.2844Y-2.4057
X4.2844Y-2.5057
X4.2844Y-2.6057
X4.2844Y-2.7057
X4.2844Y-2.8057
X4.2844Y-2.9057
X4.2844Y-3.0057
T6
X4.7526Y-1.2083
X5.0285Y-1.2083
M30
