%TF.GenerationSoftware,KiCad,Pcbnew,8.0.4*%
%TF.CreationDate,2024-08-02T18:27:15+02:00*%
%TF.ProjectId,PiChannelF,50694368-616e-46e6-956c-462e6b696361,1*%
%TF.SameCoordinates,Original*%
%TF.FileFunction,Legend,Top*%
%TF.FilePolarity,Positive*%
%FSLAX46Y46*%
G04 Gerber Fmt 4.6, Leading zero omitted, Abs format (unit mm)*
G04 Created by KiCad (PCBNEW 8.0.4) date 2024-08-02 18:27:15*
%MOMM*%
%LPD*%
G01*
G04 APERTURE LIST*
G04 Aperture macros list*
%AMRoundRect*
0 Rectangle with rounded corners*
0 $1 Rounding radius*
0 $2 $3 $4 $5 $6 $7 $8 $9 X,Y pos of 4 corners*
0 Add a 4 corners polygon primitive as box body*
4,1,4,$2,$3,$4,$5,$6,$7,$8,$9,$2,$3,0*
0 Add four circle primitives for the rounded corners*
1,1,$1+$1,$2,$3*
1,1,$1+$1,$4,$5*
1,1,$1+$1,$6,$7*
1,1,$1+$1,$8,$9*
0 Add four rect primitives between the rounded corners*
20,1,$1+$1,$2,$3,$4,$5,0*
20,1,$1+$1,$4,$5,$6,$7,0*
20,1,$1+$1,$6,$7,$8,$9,0*
20,1,$1+$1,$8,$9,$2,$3,0*%
G04 Aperture macros list end*
%ADD10C,0.150000*%
%ADD11C,0.100000*%
%ADD12C,0.300000*%
%ADD13C,0.120000*%
%ADD14C,1.600000*%
%ADD15O,1.600000X1.600000*%
%ADD16R,1.800000X1.800000*%
%ADD17C,1.800000*%
%ADD18R,1.600000X1.600000*%
%ADD19R,1.900000X8.100000*%
%ADD20RoundRect,0.233760X-0.716240X-0.766240X0.716240X-0.766240X0.716240X0.766240X-0.716240X0.766240X0*%
%ADD21R,1.700000X1.700000*%
%ADD22O,1.700000X1.700000*%
%ADD23C,2.100000*%
%ADD24C,1.750000*%
G04 APERTURE END LIST*
D10*
X120476190Y-40777312D02*
X120571428Y-40824931D01*
X120571428Y-40824931D02*
X120761904Y-40824931D01*
X120761904Y-40824931D02*
X120857142Y-40777312D01*
X120857142Y-40777312D02*
X120904761Y-40682073D01*
X120904761Y-40682073D02*
X120904761Y-40634454D01*
X120904761Y-40634454D02*
X120857142Y-40539216D01*
X120857142Y-40539216D02*
X120761904Y-40491597D01*
X120761904Y-40491597D02*
X120619047Y-40491597D01*
X120619047Y-40491597D02*
X120523809Y-40443978D01*
X120523809Y-40443978D02*
X120476190Y-40348740D01*
X120476190Y-40348740D02*
X120476190Y-40301121D01*
X120476190Y-40301121D02*
X120523809Y-40205883D01*
X120523809Y-40205883D02*
X120619047Y-40158264D01*
X120619047Y-40158264D02*
X120761904Y-40158264D01*
X120761904Y-40158264D02*
X120857142Y-40205883D01*
X121476190Y-40824931D02*
X121380952Y-40777312D01*
X121380952Y-40777312D02*
X121333333Y-40729692D01*
X121333333Y-40729692D02*
X121285714Y-40634454D01*
X121285714Y-40634454D02*
X121285714Y-40348740D01*
X121285714Y-40348740D02*
X121333333Y-40253502D01*
X121333333Y-40253502D02*
X121380952Y-40205883D01*
X121380952Y-40205883D02*
X121476190Y-40158264D01*
X121476190Y-40158264D02*
X121619047Y-40158264D01*
X121619047Y-40158264D02*
X121714285Y-40205883D01*
X121714285Y-40205883D02*
X121761904Y-40253502D01*
X121761904Y-40253502D02*
X121809523Y-40348740D01*
X121809523Y-40348740D02*
X121809523Y-40634454D01*
X121809523Y-40634454D02*
X121761904Y-40729692D01*
X121761904Y-40729692D02*
X121714285Y-40777312D01*
X121714285Y-40777312D02*
X121619047Y-40824931D01*
X121619047Y-40824931D02*
X121476190Y-40824931D01*
X122380952Y-40824931D02*
X122285714Y-40777312D01*
X122285714Y-40777312D02*
X122238095Y-40682073D01*
X122238095Y-40682073D02*
X122238095Y-39824931D01*
X123190476Y-40824931D02*
X123190476Y-39824931D01*
X123190476Y-40777312D02*
X123095238Y-40824931D01*
X123095238Y-40824931D02*
X122904762Y-40824931D01*
X122904762Y-40824931D02*
X122809524Y-40777312D01*
X122809524Y-40777312D02*
X122761905Y-40729692D01*
X122761905Y-40729692D02*
X122714286Y-40634454D01*
X122714286Y-40634454D02*
X122714286Y-40348740D01*
X122714286Y-40348740D02*
X122761905Y-40253502D01*
X122761905Y-40253502D02*
X122809524Y-40205883D01*
X122809524Y-40205883D02*
X122904762Y-40158264D01*
X122904762Y-40158264D02*
X123095238Y-40158264D01*
X123095238Y-40158264D02*
X123190476Y-40205883D01*
X124047619Y-40777312D02*
X123952381Y-40824931D01*
X123952381Y-40824931D02*
X123761905Y-40824931D01*
X123761905Y-40824931D02*
X123666667Y-40777312D01*
X123666667Y-40777312D02*
X123619048Y-40682073D01*
X123619048Y-40682073D02*
X123619048Y-40301121D01*
X123619048Y-40301121D02*
X123666667Y-40205883D01*
X123666667Y-40205883D02*
X123761905Y-40158264D01*
X123761905Y-40158264D02*
X123952381Y-40158264D01*
X123952381Y-40158264D02*
X124047619Y-40205883D01*
X124047619Y-40205883D02*
X124095238Y-40301121D01*
X124095238Y-40301121D02*
X124095238Y-40396359D01*
X124095238Y-40396359D02*
X123619048Y-40491597D01*
X124523810Y-40824931D02*
X124523810Y-40158264D01*
X124523810Y-40348740D02*
X124571429Y-40253502D01*
X124571429Y-40253502D02*
X124619048Y-40205883D01*
X124619048Y-40205883D02*
X124714286Y-40158264D01*
X124714286Y-40158264D02*
X124809524Y-40158264D01*
X125857144Y-40777312D02*
X125952382Y-40824931D01*
X125952382Y-40824931D02*
X126142858Y-40824931D01*
X126142858Y-40824931D02*
X126238096Y-40777312D01*
X126238096Y-40777312D02*
X126285715Y-40682073D01*
X126285715Y-40682073D02*
X126285715Y-40634454D01*
X126285715Y-40634454D02*
X126238096Y-40539216D01*
X126238096Y-40539216D02*
X126142858Y-40491597D01*
X126142858Y-40491597D02*
X126000001Y-40491597D01*
X126000001Y-40491597D02*
X125904763Y-40443978D01*
X125904763Y-40443978D02*
X125857144Y-40348740D01*
X125857144Y-40348740D02*
X125857144Y-40301121D01*
X125857144Y-40301121D02*
X125904763Y-40205883D01*
X125904763Y-40205883D02*
X126000001Y-40158264D01*
X126000001Y-40158264D02*
X126142858Y-40158264D01*
X126142858Y-40158264D02*
X126238096Y-40205883D01*
X126714287Y-40824931D02*
X126714287Y-40158264D01*
X126714287Y-39824931D02*
X126666668Y-39872550D01*
X126666668Y-39872550D02*
X126714287Y-39920169D01*
X126714287Y-39920169D02*
X126761906Y-39872550D01*
X126761906Y-39872550D02*
X126714287Y-39824931D01*
X126714287Y-39824931D02*
X126714287Y-39920169D01*
X127619048Y-40824931D02*
X127619048Y-39824931D01*
X127619048Y-40777312D02*
X127523810Y-40824931D01*
X127523810Y-40824931D02*
X127333334Y-40824931D01*
X127333334Y-40824931D02*
X127238096Y-40777312D01*
X127238096Y-40777312D02*
X127190477Y-40729692D01*
X127190477Y-40729692D02*
X127142858Y-40634454D01*
X127142858Y-40634454D02*
X127142858Y-40348740D01*
X127142858Y-40348740D02*
X127190477Y-40253502D01*
X127190477Y-40253502D02*
X127238096Y-40205883D01*
X127238096Y-40205883D02*
X127333334Y-40158264D01*
X127333334Y-40158264D02*
X127523810Y-40158264D01*
X127523810Y-40158264D02*
X127619048Y-40205883D01*
X128476191Y-40777312D02*
X128380953Y-40824931D01*
X128380953Y-40824931D02*
X128190477Y-40824931D01*
X128190477Y-40824931D02*
X128095239Y-40777312D01*
X128095239Y-40777312D02*
X128047620Y-40682073D01*
X128047620Y-40682073D02*
X128047620Y-40301121D01*
X128047620Y-40301121D02*
X128095239Y-40205883D01*
X128095239Y-40205883D02*
X128190477Y-40158264D01*
X128190477Y-40158264D02*
X128380953Y-40158264D01*
X128380953Y-40158264D02*
X128476191Y-40205883D01*
X128476191Y-40205883D02*
X128523810Y-40301121D01*
X128523810Y-40301121D02*
X128523810Y-40396359D01*
X128523810Y-40396359D02*
X128047620Y-40491597D01*
X121023808Y-42815827D02*
X120976189Y-42768208D01*
X120976189Y-42768208D02*
X120880951Y-42625351D01*
X120880951Y-42625351D02*
X120833332Y-42530113D01*
X120833332Y-42530113D02*
X120785713Y-42387256D01*
X120785713Y-42387256D02*
X120738094Y-42149160D01*
X120738094Y-42149160D02*
X120738094Y-41958684D01*
X120738094Y-41958684D02*
X120785713Y-41720589D01*
X120785713Y-41720589D02*
X120833332Y-41577732D01*
X120833332Y-41577732D02*
X120880951Y-41482494D01*
X120880951Y-41482494D02*
X120976189Y-41339636D01*
X120976189Y-41339636D02*
X121023808Y-41292017D01*
X121404761Y-42434875D02*
X121404761Y-41434875D01*
X121404761Y-41815827D02*
X121499999Y-41768208D01*
X121499999Y-41768208D02*
X121690475Y-41768208D01*
X121690475Y-41768208D02*
X121785713Y-41815827D01*
X121785713Y-41815827D02*
X121833332Y-41863446D01*
X121833332Y-41863446D02*
X121880951Y-41958684D01*
X121880951Y-41958684D02*
X121880951Y-42244398D01*
X121880951Y-42244398D02*
X121833332Y-42339636D01*
X121833332Y-42339636D02*
X121785713Y-42387256D01*
X121785713Y-42387256D02*
X121690475Y-42434875D01*
X121690475Y-42434875D02*
X121499999Y-42434875D01*
X121499999Y-42434875D02*
X121404761Y-42387256D01*
X122738094Y-41768208D02*
X122738094Y-42434875D01*
X122309523Y-41768208D02*
X122309523Y-42292017D01*
X122309523Y-42292017D02*
X122357142Y-42387256D01*
X122357142Y-42387256D02*
X122452380Y-42434875D01*
X122452380Y-42434875D02*
X122595237Y-42434875D01*
X122595237Y-42434875D02*
X122690475Y-42387256D01*
X122690475Y-42387256D02*
X122738094Y-42339636D01*
X123071428Y-41768208D02*
X123452380Y-41768208D01*
X123214285Y-41434875D02*
X123214285Y-42292017D01*
X123214285Y-42292017D02*
X123261904Y-42387256D01*
X123261904Y-42387256D02*
X123357142Y-42434875D01*
X123357142Y-42434875D02*
X123452380Y-42434875D01*
X123642857Y-41768208D02*
X124023809Y-41768208D01*
X123785714Y-41434875D02*
X123785714Y-42292017D01*
X123785714Y-42292017D02*
X123833333Y-42387256D01*
X123833333Y-42387256D02*
X123928571Y-42434875D01*
X123928571Y-42434875D02*
X124023809Y-42434875D01*
X124500000Y-42434875D02*
X124404762Y-42387256D01*
X124404762Y-42387256D02*
X124357143Y-42339636D01*
X124357143Y-42339636D02*
X124309524Y-42244398D01*
X124309524Y-42244398D02*
X124309524Y-41958684D01*
X124309524Y-41958684D02*
X124357143Y-41863446D01*
X124357143Y-41863446D02*
X124404762Y-41815827D01*
X124404762Y-41815827D02*
X124500000Y-41768208D01*
X124500000Y-41768208D02*
X124642857Y-41768208D01*
X124642857Y-41768208D02*
X124738095Y-41815827D01*
X124738095Y-41815827D02*
X124785714Y-41863446D01*
X124785714Y-41863446D02*
X124833333Y-41958684D01*
X124833333Y-41958684D02*
X124833333Y-42244398D01*
X124833333Y-42244398D02*
X124785714Y-42339636D01*
X124785714Y-42339636D02*
X124738095Y-42387256D01*
X124738095Y-42387256D02*
X124642857Y-42434875D01*
X124642857Y-42434875D02*
X124500000Y-42434875D01*
X125261905Y-41768208D02*
X125261905Y-42434875D01*
X125261905Y-41863446D02*
X125309524Y-41815827D01*
X125309524Y-41815827D02*
X125404762Y-41768208D01*
X125404762Y-41768208D02*
X125547619Y-41768208D01*
X125547619Y-41768208D02*
X125642857Y-41815827D01*
X125642857Y-41815827D02*
X125690476Y-41911065D01*
X125690476Y-41911065D02*
X125690476Y-42434875D01*
X127071429Y-42434875D02*
X126976191Y-42387256D01*
X126976191Y-42387256D02*
X126928572Y-42339636D01*
X126928572Y-42339636D02*
X126880953Y-42244398D01*
X126880953Y-42244398D02*
X126880953Y-41958684D01*
X126880953Y-41958684D02*
X126928572Y-41863446D01*
X126928572Y-41863446D02*
X126976191Y-41815827D01*
X126976191Y-41815827D02*
X127071429Y-41768208D01*
X127071429Y-41768208D02*
X127214286Y-41768208D01*
X127214286Y-41768208D02*
X127309524Y-41815827D01*
X127309524Y-41815827D02*
X127357143Y-41863446D01*
X127357143Y-41863446D02*
X127404762Y-41958684D01*
X127404762Y-41958684D02*
X127404762Y-42244398D01*
X127404762Y-42244398D02*
X127357143Y-42339636D01*
X127357143Y-42339636D02*
X127309524Y-42387256D01*
X127309524Y-42387256D02*
X127214286Y-42434875D01*
X127214286Y-42434875D02*
X127071429Y-42434875D01*
X127833334Y-41768208D02*
X127833334Y-42434875D01*
X127833334Y-41863446D02*
X127880953Y-41815827D01*
X127880953Y-41815827D02*
X127976191Y-41768208D01*
X127976191Y-41768208D02*
X128119048Y-41768208D01*
X128119048Y-41768208D02*
X128214286Y-41815827D01*
X128214286Y-41815827D02*
X128261905Y-41911065D01*
X128261905Y-41911065D02*
X128261905Y-42434875D01*
X119809523Y-44044819D02*
X119809523Y-43378152D01*
X119809523Y-43568628D02*
X119857142Y-43473390D01*
X119857142Y-43473390D02*
X119904761Y-43425771D01*
X119904761Y-43425771D02*
X119999999Y-43378152D01*
X119999999Y-43378152D02*
X120095237Y-43378152D01*
X120809523Y-43997200D02*
X120714285Y-44044819D01*
X120714285Y-44044819D02*
X120523809Y-44044819D01*
X120523809Y-44044819D02*
X120428571Y-43997200D01*
X120428571Y-43997200D02*
X120380952Y-43901961D01*
X120380952Y-43901961D02*
X120380952Y-43521009D01*
X120380952Y-43521009D02*
X120428571Y-43425771D01*
X120428571Y-43425771D02*
X120523809Y-43378152D01*
X120523809Y-43378152D02*
X120714285Y-43378152D01*
X120714285Y-43378152D02*
X120809523Y-43425771D01*
X120809523Y-43425771D02*
X120857142Y-43521009D01*
X120857142Y-43521009D02*
X120857142Y-43616247D01*
X120857142Y-43616247D02*
X120380952Y-43711485D01*
X121190476Y-43378152D02*
X121428571Y-44044819D01*
X121428571Y-44044819D02*
X121666666Y-43378152D01*
X122428571Y-43997200D02*
X122333333Y-44044819D01*
X122333333Y-44044819D02*
X122142857Y-44044819D01*
X122142857Y-44044819D02*
X122047619Y-43997200D01*
X122047619Y-43997200D02*
X122000000Y-43901961D01*
X122000000Y-43901961D02*
X122000000Y-43521009D01*
X122000000Y-43521009D02*
X122047619Y-43425771D01*
X122047619Y-43425771D02*
X122142857Y-43378152D01*
X122142857Y-43378152D02*
X122333333Y-43378152D01*
X122333333Y-43378152D02*
X122428571Y-43425771D01*
X122428571Y-43425771D02*
X122476190Y-43521009D01*
X122476190Y-43521009D02*
X122476190Y-43616247D01*
X122476190Y-43616247D02*
X122000000Y-43711485D01*
X122904762Y-44044819D02*
X122904762Y-43378152D01*
X122904762Y-43568628D02*
X122952381Y-43473390D01*
X122952381Y-43473390D02*
X123000000Y-43425771D01*
X123000000Y-43425771D02*
X123095238Y-43378152D01*
X123095238Y-43378152D02*
X123190476Y-43378152D01*
X123476191Y-43997200D02*
X123571429Y-44044819D01*
X123571429Y-44044819D02*
X123761905Y-44044819D01*
X123761905Y-44044819D02*
X123857143Y-43997200D01*
X123857143Y-43997200D02*
X123904762Y-43901961D01*
X123904762Y-43901961D02*
X123904762Y-43854342D01*
X123904762Y-43854342D02*
X123857143Y-43759104D01*
X123857143Y-43759104D02*
X123761905Y-43711485D01*
X123761905Y-43711485D02*
X123619048Y-43711485D01*
X123619048Y-43711485D02*
X123523810Y-43663866D01*
X123523810Y-43663866D02*
X123476191Y-43568628D01*
X123476191Y-43568628D02*
X123476191Y-43521009D01*
X123476191Y-43521009D02*
X123523810Y-43425771D01*
X123523810Y-43425771D02*
X123619048Y-43378152D01*
X123619048Y-43378152D02*
X123761905Y-43378152D01*
X123761905Y-43378152D02*
X123857143Y-43425771D01*
X124714286Y-43997200D02*
X124619048Y-44044819D01*
X124619048Y-44044819D02*
X124428572Y-44044819D01*
X124428572Y-44044819D02*
X124333334Y-43997200D01*
X124333334Y-43997200D02*
X124285715Y-43901961D01*
X124285715Y-43901961D02*
X124285715Y-43521009D01*
X124285715Y-43521009D02*
X124333334Y-43425771D01*
X124333334Y-43425771D02*
X124428572Y-43378152D01*
X124428572Y-43378152D02*
X124619048Y-43378152D01*
X124619048Y-43378152D02*
X124714286Y-43425771D01*
X124714286Y-43425771D02*
X124761905Y-43521009D01*
X124761905Y-43521009D02*
X124761905Y-43616247D01*
X124761905Y-43616247D02*
X124285715Y-43711485D01*
X125904763Y-43997200D02*
X126000001Y-44044819D01*
X126000001Y-44044819D02*
X126190477Y-44044819D01*
X126190477Y-44044819D02*
X126285715Y-43997200D01*
X126285715Y-43997200D02*
X126333334Y-43901961D01*
X126333334Y-43901961D02*
X126333334Y-43854342D01*
X126333334Y-43854342D02*
X126285715Y-43759104D01*
X126285715Y-43759104D02*
X126190477Y-43711485D01*
X126190477Y-43711485D02*
X126047620Y-43711485D01*
X126047620Y-43711485D02*
X125952382Y-43663866D01*
X125952382Y-43663866D02*
X125904763Y-43568628D01*
X125904763Y-43568628D02*
X125904763Y-43521009D01*
X125904763Y-43521009D02*
X125952382Y-43425771D01*
X125952382Y-43425771D02*
X126047620Y-43378152D01*
X126047620Y-43378152D02*
X126190477Y-43378152D01*
X126190477Y-43378152D02*
X126285715Y-43425771D01*
X126761906Y-44044819D02*
X126761906Y-43378152D01*
X126761906Y-43044819D02*
X126714287Y-43092438D01*
X126714287Y-43092438D02*
X126761906Y-43140057D01*
X126761906Y-43140057D02*
X126809525Y-43092438D01*
X126809525Y-43092438D02*
X126761906Y-43044819D01*
X126761906Y-43044819D02*
X126761906Y-43140057D01*
X127666667Y-44044819D02*
X127666667Y-43044819D01*
X127666667Y-43997200D02*
X127571429Y-44044819D01*
X127571429Y-44044819D02*
X127380953Y-44044819D01*
X127380953Y-44044819D02*
X127285715Y-43997200D01*
X127285715Y-43997200D02*
X127238096Y-43949580D01*
X127238096Y-43949580D02*
X127190477Y-43854342D01*
X127190477Y-43854342D02*
X127190477Y-43568628D01*
X127190477Y-43568628D02*
X127238096Y-43473390D01*
X127238096Y-43473390D02*
X127285715Y-43425771D01*
X127285715Y-43425771D02*
X127380953Y-43378152D01*
X127380953Y-43378152D02*
X127571429Y-43378152D01*
X127571429Y-43378152D02*
X127666667Y-43425771D01*
X128523810Y-43997200D02*
X128428572Y-44044819D01*
X128428572Y-44044819D02*
X128238096Y-44044819D01*
X128238096Y-44044819D02*
X128142858Y-43997200D01*
X128142858Y-43997200D02*
X128095239Y-43901961D01*
X128095239Y-43901961D02*
X128095239Y-43521009D01*
X128095239Y-43521009D02*
X128142858Y-43425771D01*
X128142858Y-43425771D02*
X128238096Y-43378152D01*
X128238096Y-43378152D02*
X128428572Y-43378152D01*
X128428572Y-43378152D02*
X128523810Y-43425771D01*
X128523810Y-43425771D02*
X128571429Y-43521009D01*
X128571429Y-43521009D02*
X128571429Y-43616247D01*
X128571429Y-43616247D02*
X128095239Y-43711485D01*
X128904763Y-44425771D02*
X128952382Y-44378152D01*
X128952382Y-44378152D02*
X129047620Y-44235295D01*
X129047620Y-44235295D02*
X129095239Y-44140057D01*
X129095239Y-44140057D02*
X129142858Y-43997200D01*
X129142858Y-43997200D02*
X129190477Y-43759104D01*
X129190477Y-43759104D02*
X129190477Y-43568628D01*
X129190477Y-43568628D02*
X129142858Y-43330533D01*
X129142858Y-43330533D02*
X129095239Y-43187676D01*
X129095239Y-43187676D02*
X129047620Y-43092438D01*
X129047620Y-43092438D02*
X128952382Y-42949580D01*
X128952382Y-42949580D02*
X128904763Y-42901961D01*
X99887256Y-57745238D02*
X99934875Y-57602381D01*
X99934875Y-57602381D02*
X99934875Y-57364286D01*
X99934875Y-57364286D02*
X99887256Y-57269048D01*
X99887256Y-57269048D02*
X99839636Y-57221429D01*
X99839636Y-57221429D02*
X99744398Y-57173810D01*
X99744398Y-57173810D02*
X99649160Y-57173810D01*
X99649160Y-57173810D02*
X99553922Y-57221429D01*
X99553922Y-57221429D02*
X99506303Y-57269048D01*
X99506303Y-57269048D02*
X99458684Y-57364286D01*
X99458684Y-57364286D02*
X99411065Y-57554762D01*
X99411065Y-57554762D02*
X99363446Y-57650000D01*
X99363446Y-57650000D02*
X99315827Y-57697619D01*
X99315827Y-57697619D02*
X99220589Y-57745238D01*
X99220589Y-57745238D02*
X99125351Y-57745238D01*
X99125351Y-57745238D02*
X99030113Y-57697619D01*
X99030113Y-57697619D02*
X98982494Y-57650000D01*
X98982494Y-57650000D02*
X98934875Y-57554762D01*
X98934875Y-57554762D02*
X98934875Y-57316667D01*
X98934875Y-57316667D02*
X98982494Y-57173810D01*
X99934875Y-56602381D02*
X99887256Y-56697619D01*
X99887256Y-56697619D02*
X99839636Y-56745238D01*
X99839636Y-56745238D02*
X99744398Y-56792857D01*
X99744398Y-56792857D02*
X99458684Y-56792857D01*
X99458684Y-56792857D02*
X99363446Y-56745238D01*
X99363446Y-56745238D02*
X99315827Y-56697619D01*
X99315827Y-56697619D02*
X99268208Y-56602381D01*
X99268208Y-56602381D02*
X99268208Y-56459524D01*
X99268208Y-56459524D02*
X99315827Y-56364286D01*
X99315827Y-56364286D02*
X99363446Y-56316667D01*
X99363446Y-56316667D02*
X99458684Y-56269048D01*
X99458684Y-56269048D02*
X99744398Y-56269048D01*
X99744398Y-56269048D02*
X99839636Y-56316667D01*
X99839636Y-56316667D02*
X99887256Y-56364286D01*
X99887256Y-56364286D02*
X99934875Y-56459524D01*
X99934875Y-56459524D02*
X99934875Y-56602381D01*
X99934875Y-55697619D02*
X99887256Y-55792857D01*
X99887256Y-55792857D02*
X99792017Y-55840476D01*
X99792017Y-55840476D02*
X98934875Y-55840476D01*
X99934875Y-54888095D02*
X98934875Y-54888095D01*
X99887256Y-54888095D02*
X99934875Y-54983333D01*
X99934875Y-54983333D02*
X99934875Y-55173809D01*
X99934875Y-55173809D02*
X99887256Y-55269047D01*
X99887256Y-55269047D02*
X99839636Y-55316666D01*
X99839636Y-55316666D02*
X99744398Y-55364285D01*
X99744398Y-55364285D02*
X99458684Y-55364285D01*
X99458684Y-55364285D02*
X99363446Y-55316666D01*
X99363446Y-55316666D02*
X99315827Y-55269047D01*
X99315827Y-55269047D02*
X99268208Y-55173809D01*
X99268208Y-55173809D02*
X99268208Y-54983333D01*
X99268208Y-54983333D02*
X99315827Y-54888095D01*
X99887256Y-54030952D02*
X99934875Y-54126190D01*
X99934875Y-54126190D02*
X99934875Y-54316666D01*
X99934875Y-54316666D02*
X99887256Y-54411904D01*
X99887256Y-54411904D02*
X99792017Y-54459523D01*
X99792017Y-54459523D02*
X99411065Y-54459523D01*
X99411065Y-54459523D02*
X99315827Y-54411904D01*
X99315827Y-54411904D02*
X99268208Y-54316666D01*
X99268208Y-54316666D02*
X99268208Y-54126190D01*
X99268208Y-54126190D02*
X99315827Y-54030952D01*
X99315827Y-54030952D02*
X99411065Y-53983333D01*
X99411065Y-53983333D02*
X99506303Y-53983333D01*
X99506303Y-53983333D02*
X99601541Y-54459523D01*
X99934875Y-53554761D02*
X99268208Y-53554761D01*
X99458684Y-53554761D02*
X99363446Y-53507142D01*
X99363446Y-53507142D02*
X99315827Y-53459523D01*
X99315827Y-53459523D02*
X99268208Y-53364285D01*
X99268208Y-53364285D02*
X99268208Y-53269047D01*
X99887256Y-52221427D02*
X99934875Y-52126189D01*
X99934875Y-52126189D02*
X99934875Y-51935713D01*
X99934875Y-51935713D02*
X99887256Y-51840475D01*
X99887256Y-51840475D02*
X99792017Y-51792856D01*
X99792017Y-51792856D02*
X99744398Y-51792856D01*
X99744398Y-51792856D02*
X99649160Y-51840475D01*
X99649160Y-51840475D02*
X99601541Y-51935713D01*
X99601541Y-51935713D02*
X99601541Y-52078570D01*
X99601541Y-52078570D02*
X99553922Y-52173808D01*
X99553922Y-52173808D02*
X99458684Y-52221427D01*
X99458684Y-52221427D02*
X99411065Y-52221427D01*
X99411065Y-52221427D02*
X99315827Y-52173808D01*
X99315827Y-52173808D02*
X99268208Y-52078570D01*
X99268208Y-52078570D02*
X99268208Y-51935713D01*
X99268208Y-51935713D02*
X99315827Y-51840475D01*
X99934875Y-51364284D02*
X99268208Y-51364284D01*
X98934875Y-51364284D02*
X98982494Y-51411903D01*
X98982494Y-51411903D02*
X99030113Y-51364284D01*
X99030113Y-51364284D02*
X98982494Y-51316665D01*
X98982494Y-51316665D02*
X98934875Y-51364284D01*
X98934875Y-51364284D02*
X99030113Y-51364284D01*
X99934875Y-50459523D02*
X98934875Y-50459523D01*
X99887256Y-50459523D02*
X99934875Y-50554761D01*
X99934875Y-50554761D02*
X99934875Y-50745237D01*
X99934875Y-50745237D02*
X99887256Y-50840475D01*
X99887256Y-50840475D02*
X99839636Y-50888094D01*
X99839636Y-50888094D02*
X99744398Y-50935713D01*
X99744398Y-50935713D02*
X99458684Y-50935713D01*
X99458684Y-50935713D02*
X99363446Y-50888094D01*
X99363446Y-50888094D02*
X99315827Y-50840475D01*
X99315827Y-50840475D02*
X99268208Y-50745237D01*
X99268208Y-50745237D02*
X99268208Y-50554761D01*
X99268208Y-50554761D02*
X99315827Y-50459523D01*
X99887256Y-49602380D02*
X99934875Y-49697618D01*
X99934875Y-49697618D02*
X99934875Y-49888094D01*
X99934875Y-49888094D02*
X99887256Y-49983332D01*
X99887256Y-49983332D02*
X99792017Y-50030951D01*
X99792017Y-50030951D02*
X99411065Y-50030951D01*
X99411065Y-50030951D02*
X99315827Y-49983332D01*
X99315827Y-49983332D02*
X99268208Y-49888094D01*
X99268208Y-49888094D02*
X99268208Y-49697618D01*
X99268208Y-49697618D02*
X99315827Y-49602380D01*
X99315827Y-49602380D02*
X99411065Y-49554761D01*
X99411065Y-49554761D02*
X99506303Y-49554761D01*
X99506303Y-49554761D02*
X99601541Y-50030951D01*
X101925771Y-61673810D02*
X101878152Y-61721429D01*
X101878152Y-61721429D02*
X101735295Y-61816667D01*
X101735295Y-61816667D02*
X101640057Y-61864286D01*
X101640057Y-61864286D02*
X101497200Y-61911905D01*
X101497200Y-61911905D02*
X101259104Y-61959524D01*
X101259104Y-61959524D02*
X101068628Y-61959524D01*
X101068628Y-61959524D02*
X100830533Y-61911905D01*
X100830533Y-61911905D02*
X100687676Y-61864286D01*
X100687676Y-61864286D02*
X100592438Y-61816667D01*
X100592438Y-61816667D02*
X100449580Y-61721429D01*
X100449580Y-61721429D02*
X100401961Y-61673810D01*
X101544819Y-61292857D02*
X100544819Y-61292857D01*
X100544819Y-61292857D02*
X100544819Y-60911905D01*
X100544819Y-60911905D02*
X100592438Y-60816667D01*
X100592438Y-60816667D02*
X100640057Y-60769048D01*
X100640057Y-60769048D02*
X100735295Y-60721429D01*
X100735295Y-60721429D02*
X100878152Y-60721429D01*
X100878152Y-60721429D02*
X100973390Y-60769048D01*
X100973390Y-60769048D02*
X101021009Y-60816667D01*
X101021009Y-60816667D02*
X101068628Y-60911905D01*
X101068628Y-60911905D02*
X101068628Y-61292857D01*
X101544819Y-60292857D02*
X100878152Y-60292857D01*
X100544819Y-60292857D02*
X100592438Y-60340476D01*
X100592438Y-60340476D02*
X100640057Y-60292857D01*
X100640057Y-60292857D02*
X100592438Y-60245238D01*
X100592438Y-60245238D02*
X100544819Y-60292857D01*
X100544819Y-60292857D02*
X100640057Y-60292857D01*
X101497200Y-59388096D02*
X101544819Y-59483334D01*
X101544819Y-59483334D02*
X101544819Y-59673810D01*
X101544819Y-59673810D02*
X101497200Y-59769048D01*
X101497200Y-59769048D02*
X101449580Y-59816667D01*
X101449580Y-59816667D02*
X101354342Y-59864286D01*
X101354342Y-59864286D02*
X101068628Y-59864286D01*
X101068628Y-59864286D02*
X100973390Y-59816667D01*
X100973390Y-59816667D02*
X100925771Y-59769048D01*
X100925771Y-59769048D02*
X100878152Y-59673810D01*
X100878152Y-59673810D02*
X100878152Y-59483334D01*
X100878152Y-59483334D02*
X100925771Y-59388096D01*
X101544819Y-58816667D02*
X101497200Y-58911905D01*
X101497200Y-58911905D02*
X101449580Y-58959524D01*
X101449580Y-58959524D02*
X101354342Y-59007143D01*
X101354342Y-59007143D02*
X101068628Y-59007143D01*
X101068628Y-59007143D02*
X100973390Y-58959524D01*
X100973390Y-58959524D02*
X100925771Y-58911905D01*
X100925771Y-58911905D02*
X100878152Y-58816667D01*
X100878152Y-58816667D02*
X100878152Y-58673810D01*
X100878152Y-58673810D02*
X100925771Y-58578572D01*
X100925771Y-58578572D02*
X100973390Y-58530953D01*
X100973390Y-58530953D02*
X101068628Y-58483334D01*
X101068628Y-58483334D02*
X101354342Y-58483334D01*
X101354342Y-58483334D02*
X101449580Y-58530953D01*
X101449580Y-58530953D02*
X101497200Y-58578572D01*
X101497200Y-58578572D02*
X101544819Y-58673810D01*
X101544819Y-58673810D02*
X101544819Y-58816667D01*
X101544819Y-57150000D02*
X101497200Y-57245238D01*
X101497200Y-57245238D02*
X101449580Y-57292857D01*
X101449580Y-57292857D02*
X101354342Y-57340476D01*
X101354342Y-57340476D02*
X101068628Y-57340476D01*
X101068628Y-57340476D02*
X100973390Y-57292857D01*
X100973390Y-57292857D02*
X100925771Y-57245238D01*
X100925771Y-57245238D02*
X100878152Y-57150000D01*
X100878152Y-57150000D02*
X100878152Y-57007143D01*
X100878152Y-57007143D02*
X100925771Y-56911905D01*
X100925771Y-56911905D02*
X100973390Y-56864286D01*
X100973390Y-56864286D02*
X101068628Y-56816667D01*
X101068628Y-56816667D02*
X101354342Y-56816667D01*
X101354342Y-56816667D02*
X101449580Y-56864286D01*
X101449580Y-56864286D02*
X101497200Y-56911905D01*
X101497200Y-56911905D02*
X101544819Y-57007143D01*
X101544819Y-57007143D02*
X101544819Y-57150000D01*
X100878152Y-56388095D02*
X101544819Y-56388095D01*
X100973390Y-56388095D02*
X100925771Y-56340476D01*
X100925771Y-56340476D02*
X100878152Y-56245238D01*
X100878152Y-56245238D02*
X100878152Y-56102381D01*
X100878152Y-56102381D02*
X100925771Y-56007143D01*
X100925771Y-56007143D02*
X101021009Y-55959524D01*
X101021009Y-55959524D02*
X101544819Y-55959524D01*
X101544819Y-54721428D02*
X100878152Y-54721428D01*
X101068628Y-54721428D02*
X100973390Y-54673809D01*
X100973390Y-54673809D02*
X100925771Y-54626190D01*
X100925771Y-54626190D02*
X100878152Y-54530952D01*
X100878152Y-54530952D02*
X100878152Y-54435714D01*
X101497200Y-53721428D02*
X101544819Y-53816666D01*
X101544819Y-53816666D02*
X101544819Y-54007142D01*
X101544819Y-54007142D02*
X101497200Y-54102380D01*
X101497200Y-54102380D02*
X101401961Y-54149999D01*
X101401961Y-54149999D02*
X101021009Y-54149999D01*
X101021009Y-54149999D02*
X100925771Y-54102380D01*
X100925771Y-54102380D02*
X100878152Y-54007142D01*
X100878152Y-54007142D02*
X100878152Y-53816666D01*
X100878152Y-53816666D02*
X100925771Y-53721428D01*
X100925771Y-53721428D02*
X101021009Y-53673809D01*
X101021009Y-53673809D02*
X101116247Y-53673809D01*
X101116247Y-53673809D02*
X101211485Y-54149999D01*
X100878152Y-53340475D02*
X101544819Y-53102380D01*
X101544819Y-53102380D02*
X100878152Y-52864285D01*
X101497200Y-52102380D02*
X101544819Y-52197618D01*
X101544819Y-52197618D02*
X101544819Y-52388094D01*
X101544819Y-52388094D02*
X101497200Y-52483332D01*
X101497200Y-52483332D02*
X101401961Y-52530951D01*
X101401961Y-52530951D02*
X101021009Y-52530951D01*
X101021009Y-52530951D02*
X100925771Y-52483332D01*
X100925771Y-52483332D02*
X100878152Y-52388094D01*
X100878152Y-52388094D02*
X100878152Y-52197618D01*
X100878152Y-52197618D02*
X100925771Y-52102380D01*
X100925771Y-52102380D02*
X101021009Y-52054761D01*
X101021009Y-52054761D02*
X101116247Y-52054761D01*
X101116247Y-52054761D02*
X101211485Y-52530951D01*
X101544819Y-51626189D02*
X100878152Y-51626189D01*
X101068628Y-51626189D02*
X100973390Y-51578570D01*
X100973390Y-51578570D02*
X100925771Y-51530951D01*
X100925771Y-51530951D02*
X100878152Y-51435713D01*
X100878152Y-51435713D02*
X100878152Y-51340475D01*
X101497200Y-51054760D02*
X101544819Y-50959522D01*
X101544819Y-50959522D02*
X101544819Y-50769046D01*
X101544819Y-50769046D02*
X101497200Y-50673808D01*
X101497200Y-50673808D02*
X101401961Y-50626189D01*
X101401961Y-50626189D02*
X101354342Y-50626189D01*
X101354342Y-50626189D02*
X101259104Y-50673808D01*
X101259104Y-50673808D02*
X101211485Y-50769046D01*
X101211485Y-50769046D02*
X101211485Y-50911903D01*
X101211485Y-50911903D02*
X101163866Y-51007141D01*
X101163866Y-51007141D02*
X101068628Y-51054760D01*
X101068628Y-51054760D02*
X101021009Y-51054760D01*
X101021009Y-51054760D02*
X100925771Y-51007141D01*
X100925771Y-51007141D02*
X100878152Y-50911903D01*
X100878152Y-50911903D02*
X100878152Y-50769046D01*
X100878152Y-50769046D02*
X100925771Y-50673808D01*
X101497200Y-49816665D02*
X101544819Y-49911903D01*
X101544819Y-49911903D02*
X101544819Y-50102379D01*
X101544819Y-50102379D02*
X101497200Y-50197617D01*
X101497200Y-50197617D02*
X101401961Y-50245236D01*
X101401961Y-50245236D02*
X101021009Y-50245236D01*
X101021009Y-50245236D02*
X100925771Y-50197617D01*
X100925771Y-50197617D02*
X100878152Y-50102379D01*
X100878152Y-50102379D02*
X100878152Y-49911903D01*
X100878152Y-49911903D02*
X100925771Y-49816665D01*
X100925771Y-49816665D02*
X101021009Y-49769046D01*
X101021009Y-49769046D02*
X101116247Y-49769046D01*
X101116247Y-49769046D02*
X101211485Y-50245236D01*
X101497200Y-48626188D02*
X101544819Y-48530950D01*
X101544819Y-48530950D02*
X101544819Y-48340474D01*
X101544819Y-48340474D02*
X101497200Y-48245236D01*
X101497200Y-48245236D02*
X101401961Y-48197617D01*
X101401961Y-48197617D02*
X101354342Y-48197617D01*
X101354342Y-48197617D02*
X101259104Y-48245236D01*
X101259104Y-48245236D02*
X101211485Y-48340474D01*
X101211485Y-48340474D02*
X101211485Y-48483331D01*
X101211485Y-48483331D02*
X101163866Y-48578569D01*
X101163866Y-48578569D02*
X101068628Y-48626188D01*
X101068628Y-48626188D02*
X101021009Y-48626188D01*
X101021009Y-48626188D02*
X100925771Y-48578569D01*
X100925771Y-48578569D02*
X100878152Y-48483331D01*
X100878152Y-48483331D02*
X100878152Y-48340474D01*
X100878152Y-48340474D02*
X100925771Y-48245236D01*
X101544819Y-47769045D02*
X100878152Y-47769045D01*
X100544819Y-47769045D02*
X100592438Y-47816664D01*
X100592438Y-47816664D02*
X100640057Y-47769045D01*
X100640057Y-47769045D02*
X100592438Y-47721426D01*
X100592438Y-47721426D02*
X100544819Y-47769045D01*
X100544819Y-47769045D02*
X100640057Y-47769045D01*
X101544819Y-46864284D02*
X100544819Y-46864284D01*
X101497200Y-46864284D02*
X101544819Y-46959522D01*
X101544819Y-46959522D02*
X101544819Y-47149998D01*
X101544819Y-47149998D02*
X101497200Y-47245236D01*
X101497200Y-47245236D02*
X101449580Y-47292855D01*
X101449580Y-47292855D02*
X101354342Y-47340474D01*
X101354342Y-47340474D02*
X101068628Y-47340474D01*
X101068628Y-47340474D02*
X100973390Y-47292855D01*
X100973390Y-47292855D02*
X100925771Y-47245236D01*
X100925771Y-47245236D02*
X100878152Y-47149998D01*
X100878152Y-47149998D02*
X100878152Y-46959522D01*
X100878152Y-46959522D02*
X100925771Y-46864284D01*
X101497200Y-46007141D02*
X101544819Y-46102379D01*
X101544819Y-46102379D02*
X101544819Y-46292855D01*
X101544819Y-46292855D02*
X101497200Y-46388093D01*
X101497200Y-46388093D02*
X101401961Y-46435712D01*
X101401961Y-46435712D02*
X101021009Y-46435712D01*
X101021009Y-46435712D02*
X100925771Y-46388093D01*
X100925771Y-46388093D02*
X100878152Y-46292855D01*
X100878152Y-46292855D02*
X100878152Y-46102379D01*
X100878152Y-46102379D02*
X100925771Y-46007141D01*
X100925771Y-46007141D02*
X101021009Y-45959522D01*
X101021009Y-45959522D02*
X101116247Y-45959522D01*
X101116247Y-45959522D02*
X101211485Y-46435712D01*
X101925771Y-45626188D02*
X101878152Y-45578569D01*
X101878152Y-45578569D02*
X101735295Y-45483331D01*
X101735295Y-45483331D02*
X101640057Y-45435712D01*
X101640057Y-45435712D02*
X101497200Y-45388093D01*
X101497200Y-45388093D02*
X101259104Y-45340474D01*
X101259104Y-45340474D02*
X101068628Y-45340474D01*
X101068628Y-45340474D02*
X100830533Y-45388093D01*
X100830533Y-45388093D02*
X100687676Y-45435712D01*
X100687676Y-45435712D02*
X100592438Y-45483331D01*
X100592438Y-45483331D02*
X100449580Y-45578569D01*
X100449580Y-45578569D02*
X100401961Y-45626188D01*
X99249931Y-76005951D02*
X98249931Y-76005951D01*
X98249931Y-76005951D02*
X98249931Y-75624999D01*
X98249931Y-75624999D02*
X98297550Y-75529761D01*
X98297550Y-75529761D02*
X98345169Y-75482142D01*
X98345169Y-75482142D02*
X98440407Y-75434523D01*
X98440407Y-75434523D02*
X98583264Y-75434523D01*
X98583264Y-75434523D02*
X98678502Y-75482142D01*
X98678502Y-75482142D02*
X98726121Y-75529761D01*
X98726121Y-75529761D02*
X98773740Y-75624999D01*
X98773740Y-75624999D02*
X98773740Y-76005951D01*
X99249931Y-75005951D02*
X98583264Y-75005951D01*
X98249931Y-75005951D02*
X98297550Y-75053570D01*
X98297550Y-75053570D02*
X98345169Y-75005951D01*
X98345169Y-75005951D02*
X98297550Y-74958332D01*
X98297550Y-74958332D02*
X98249931Y-75005951D01*
X98249931Y-75005951D02*
X98345169Y-75005951D01*
X99202312Y-74101190D02*
X99249931Y-74196428D01*
X99249931Y-74196428D02*
X99249931Y-74386904D01*
X99249931Y-74386904D02*
X99202312Y-74482142D01*
X99202312Y-74482142D02*
X99154692Y-74529761D01*
X99154692Y-74529761D02*
X99059454Y-74577380D01*
X99059454Y-74577380D02*
X98773740Y-74577380D01*
X98773740Y-74577380D02*
X98678502Y-74529761D01*
X98678502Y-74529761D02*
X98630883Y-74482142D01*
X98630883Y-74482142D02*
X98583264Y-74386904D01*
X98583264Y-74386904D02*
X98583264Y-74196428D01*
X98583264Y-74196428D02*
X98630883Y-74101190D01*
X99249931Y-73529761D02*
X99202312Y-73624999D01*
X99202312Y-73624999D02*
X99154692Y-73672618D01*
X99154692Y-73672618D02*
X99059454Y-73720237D01*
X99059454Y-73720237D02*
X98773740Y-73720237D01*
X98773740Y-73720237D02*
X98678502Y-73672618D01*
X98678502Y-73672618D02*
X98630883Y-73624999D01*
X98630883Y-73624999D02*
X98583264Y-73529761D01*
X98583264Y-73529761D02*
X98583264Y-73386904D01*
X98583264Y-73386904D02*
X98630883Y-73291666D01*
X98630883Y-73291666D02*
X98678502Y-73244047D01*
X98678502Y-73244047D02*
X98773740Y-73196428D01*
X98773740Y-73196428D02*
X99059454Y-73196428D01*
X99059454Y-73196428D02*
X99154692Y-73244047D01*
X99154692Y-73244047D02*
X99202312Y-73291666D01*
X99202312Y-73291666D02*
X99249931Y-73386904D01*
X99249931Y-73386904D02*
X99249931Y-73529761D01*
X99859875Y-77601190D02*
X100050351Y-77601190D01*
X99859875Y-77220238D02*
X100050351Y-77220238D01*
X100859875Y-76791666D02*
X99859875Y-76791666D01*
X99859875Y-76791666D02*
X99859875Y-76410714D01*
X99859875Y-76410714D02*
X99907494Y-76315476D01*
X99907494Y-76315476D02*
X99955113Y-76267857D01*
X99955113Y-76267857D02*
X100050351Y-76220238D01*
X100050351Y-76220238D02*
X100193208Y-76220238D01*
X100193208Y-76220238D02*
X100288446Y-76267857D01*
X100288446Y-76267857D02*
X100336065Y-76315476D01*
X100336065Y-76315476D02*
X100383684Y-76410714D01*
X100383684Y-76410714D02*
X100383684Y-76791666D01*
X100193208Y-75363095D02*
X100859875Y-75363095D01*
X100193208Y-75791666D02*
X100717017Y-75791666D01*
X100717017Y-75791666D02*
X100812256Y-75744047D01*
X100812256Y-75744047D02*
X100859875Y-75648809D01*
X100859875Y-75648809D02*
X100859875Y-75505952D01*
X100859875Y-75505952D02*
X100812256Y-75410714D01*
X100812256Y-75410714D02*
X100764636Y-75363095D01*
X100859875Y-74886904D02*
X100193208Y-74886904D01*
X100383684Y-74886904D02*
X100288446Y-74839285D01*
X100288446Y-74839285D02*
X100240827Y-74791666D01*
X100240827Y-74791666D02*
X100193208Y-74696428D01*
X100193208Y-74696428D02*
X100193208Y-74601190D01*
X100193208Y-74267856D02*
X101193208Y-74267856D01*
X100240827Y-74267856D02*
X100193208Y-74172618D01*
X100193208Y-74172618D02*
X100193208Y-73982142D01*
X100193208Y-73982142D02*
X100240827Y-73886904D01*
X100240827Y-73886904D02*
X100288446Y-73839285D01*
X100288446Y-73839285D02*
X100383684Y-73791666D01*
X100383684Y-73791666D02*
X100669398Y-73791666D01*
X100669398Y-73791666D02*
X100764636Y-73839285D01*
X100764636Y-73839285D02*
X100812256Y-73886904D01*
X100812256Y-73886904D02*
X100859875Y-73982142D01*
X100859875Y-73982142D02*
X100859875Y-74172618D01*
X100859875Y-74172618D02*
X100812256Y-74267856D01*
X100859875Y-73220237D02*
X100812256Y-73315475D01*
X100812256Y-73315475D02*
X100717017Y-73363094D01*
X100717017Y-73363094D02*
X99859875Y-73363094D01*
X100812256Y-72458332D02*
X100859875Y-72553570D01*
X100859875Y-72553570D02*
X100859875Y-72744046D01*
X100859875Y-72744046D02*
X100812256Y-72839284D01*
X100812256Y-72839284D02*
X100717017Y-72886903D01*
X100717017Y-72886903D02*
X100336065Y-72886903D01*
X100336065Y-72886903D02*
X100240827Y-72839284D01*
X100240827Y-72839284D02*
X100193208Y-72744046D01*
X100193208Y-72744046D02*
X100193208Y-72553570D01*
X100193208Y-72553570D02*
X100240827Y-72458332D01*
X100240827Y-72458332D02*
X100336065Y-72410713D01*
X100336065Y-72410713D02*
X100431303Y-72410713D01*
X100431303Y-72410713D02*
X100526541Y-72886903D01*
X99859875Y-72029760D02*
X100050351Y-72029760D01*
X99859875Y-71648808D02*
X100050351Y-71648808D01*
X102374580Y-75910714D02*
X102422200Y-75958333D01*
X102422200Y-75958333D02*
X102469819Y-76101190D01*
X102469819Y-76101190D02*
X102469819Y-76196428D01*
X102469819Y-76196428D02*
X102422200Y-76339285D01*
X102422200Y-76339285D02*
X102326961Y-76434523D01*
X102326961Y-76434523D02*
X102231723Y-76482142D01*
X102231723Y-76482142D02*
X102041247Y-76529761D01*
X102041247Y-76529761D02*
X101898390Y-76529761D01*
X101898390Y-76529761D02*
X101707914Y-76482142D01*
X101707914Y-76482142D02*
X101612676Y-76434523D01*
X101612676Y-76434523D02*
X101517438Y-76339285D01*
X101517438Y-76339285D02*
X101469819Y-76196428D01*
X101469819Y-76196428D02*
X101469819Y-76101190D01*
X101469819Y-76101190D02*
X101517438Y-75958333D01*
X101517438Y-75958333D02*
X101565057Y-75910714D01*
X102469819Y-75339285D02*
X102422200Y-75434523D01*
X102422200Y-75434523D02*
X102326961Y-75482142D01*
X102326961Y-75482142D02*
X101469819Y-75482142D01*
X102469819Y-74815475D02*
X102422200Y-74910713D01*
X102422200Y-74910713D02*
X102374580Y-74958332D01*
X102374580Y-74958332D02*
X102279342Y-75005951D01*
X102279342Y-75005951D02*
X101993628Y-75005951D01*
X101993628Y-75005951D02*
X101898390Y-74958332D01*
X101898390Y-74958332D02*
X101850771Y-74910713D01*
X101850771Y-74910713D02*
X101803152Y-74815475D01*
X101803152Y-74815475D02*
X101803152Y-74672618D01*
X101803152Y-74672618D02*
X101850771Y-74577380D01*
X101850771Y-74577380D02*
X101898390Y-74529761D01*
X101898390Y-74529761D02*
X101993628Y-74482142D01*
X101993628Y-74482142D02*
X102279342Y-74482142D01*
X102279342Y-74482142D02*
X102374580Y-74529761D01*
X102374580Y-74529761D02*
X102422200Y-74577380D01*
X102422200Y-74577380D02*
X102469819Y-74672618D01*
X102469819Y-74672618D02*
X102469819Y-74815475D01*
X101803152Y-74053570D02*
X102469819Y-74053570D01*
X101898390Y-74053570D02*
X101850771Y-74005951D01*
X101850771Y-74005951D02*
X101803152Y-73910713D01*
X101803152Y-73910713D02*
X101803152Y-73767856D01*
X101803152Y-73767856D02*
X101850771Y-73672618D01*
X101850771Y-73672618D02*
X101946009Y-73624999D01*
X101946009Y-73624999D02*
X102469819Y-73624999D01*
X102422200Y-72767856D02*
X102469819Y-72863094D01*
X102469819Y-72863094D02*
X102469819Y-73053570D01*
X102469819Y-73053570D02*
X102422200Y-73148808D01*
X102422200Y-73148808D02*
X102326961Y-73196427D01*
X102326961Y-73196427D02*
X101946009Y-73196427D01*
X101946009Y-73196427D02*
X101850771Y-73148808D01*
X101850771Y-73148808D02*
X101803152Y-73053570D01*
X101803152Y-73053570D02*
X101803152Y-72863094D01*
X101803152Y-72863094D02*
X101850771Y-72767856D01*
X101850771Y-72767856D02*
X101946009Y-72720237D01*
X101946009Y-72720237D02*
X102041247Y-72720237D01*
X102041247Y-72720237D02*
X102136485Y-73196427D01*
X77648333Y-36309819D02*
X77315000Y-35833628D01*
X77076905Y-36309819D02*
X77076905Y-35309819D01*
X77076905Y-35309819D02*
X77457857Y-35309819D01*
X77457857Y-35309819D02*
X77553095Y-35357438D01*
X77553095Y-35357438D02*
X77600714Y-35405057D01*
X77600714Y-35405057D02*
X77648333Y-35500295D01*
X77648333Y-35500295D02*
X77648333Y-35643152D01*
X77648333Y-35643152D02*
X77600714Y-35738390D01*
X77600714Y-35738390D02*
X77553095Y-35786009D01*
X77553095Y-35786009D02*
X77457857Y-35833628D01*
X77457857Y-35833628D02*
X77076905Y-35833628D01*
X78600714Y-36309819D02*
X78029286Y-36309819D01*
X78315000Y-36309819D02*
X78315000Y-35309819D01*
X78315000Y-35309819D02*
X78219762Y-35452676D01*
X78219762Y-35452676D02*
X78124524Y-35547914D01*
X78124524Y-35547914D02*
X78029286Y-35595533D01*
X75666905Y-26769819D02*
X75666905Y-25769819D01*
X75666905Y-25769819D02*
X75905000Y-25769819D01*
X75905000Y-25769819D02*
X76047857Y-25817438D01*
X76047857Y-25817438D02*
X76143095Y-25912676D01*
X76143095Y-25912676D02*
X76190714Y-26007914D01*
X76190714Y-26007914D02*
X76238333Y-26198390D01*
X76238333Y-26198390D02*
X76238333Y-26341247D01*
X76238333Y-26341247D02*
X76190714Y-26531723D01*
X76190714Y-26531723D02*
X76143095Y-26626961D01*
X76143095Y-26626961D02*
X76047857Y-26722200D01*
X76047857Y-26722200D02*
X75905000Y-26769819D01*
X75905000Y-26769819D02*
X75666905Y-26769819D01*
X76619286Y-25865057D02*
X76666905Y-25817438D01*
X76666905Y-25817438D02*
X76762143Y-25769819D01*
X76762143Y-25769819D02*
X77000238Y-25769819D01*
X77000238Y-25769819D02*
X77095476Y-25817438D01*
X77095476Y-25817438D02*
X77143095Y-25865057D01*
X77143095Y-25865057D02*
X77190714Y-25960295D01*
X77190714Y-25960295D02*
X77190714Y-26055533D01*
X77190714Y-26055533D02*
X77143095Y-26198390D01*
X77143095Y-26198390D02*
X76571667Y-26769819D01*
X76571667Y-26769819D02*
X77190714Y-26769819D01*
X78424819Y-62848094D02*
X77424819Y-62848094D01*
X77424819Y-62848094D02*
X77424819Y-62609999D01*
X77424819Y-62609999D02*
X77472438Y-62467142D01*
X77472438Y-62467142D02*
X77567676Y-62371904D01*
X77567676Y-62371904D02*
X77662914Y-62324285D01*
X77662914Y-62324285D02*
X77853390Y-62276666D01*
X77853390Y-62276666D02*
X77996247Y-62276666D01*
X77996247Y-62276666D02*
X78186723Y-62324285D01*
X78186723Y-62324285D02*
X78281961Y-62371904D01*
X78281961Y-62371904D02*
X78377200Y-62467142D01*
X78377200Y-62467142D02*
X78424819Y-62609999D01*
X78424819Y-62609999D02*
X78424819Y-62848094D01*
X78424819Y-61324285D02*
X78424819Y-61895713D01*
X78424819Y-61609999D02*
X77424819Y-61609999D01*
X77424819Y-61609999D02*
X77567676Y-61705237D01*
X77567676Y-61705237D02*
X77662914Y-61800475D01*
X77662914Y-61800475D02*
X77710533Y-61895713D01*
X74304819Y-58386904D02*
X73304819Y-58386904D01*
X74304819Y-57815476D02*
X73733390Y-58244047D01*
X73304819Y-57815476D02*
X73876247Y-58386904D01*
D11*
X97933524Y-137401609D02*
X98266857Y-137401609D01*
X98409714Y-137925419D02*
X97933524Y-137925419D01*
X97933524Y-137925419D02*
X97933524Y-136925419D01*
X97933524Y-136925419D02*
X98409714Y-136925419D01*
X99362095Y-137925419D02*
X98790667Y-137925419D01*
X99076381Y-137925419D02*
X99076381Y-136925419D01*
X99076381Y-136925419D02*
X98981143Y-137068276D01*
X98981143Y-137068276D02*
X98885905Y-137163514D01*
X98885905Y-137163514D02*
X98790667Y-137211133D01*
D12*
X127585143Y-143266185D02*
X127656571Y-143194757D01*
X127656571Y-143194757D02*
X127799429Y-143123328D01*
X127799429Y-143123328D02*
X128156571Y-143123328D01*
X128156571Y-143123328D02*
X128299429Y-143194757D01*
X128299429Y-143194757D02*
X128370857Y-143266185D01*
X128370857Y-143266185D02*
X128442286Y-143409042D01*
X128442286Y-143409042D02*
X128442286Y-143551900D01*
X128442286Y-143551900D02*
X128370857Y-143766185D01*
X128370857Y-143766185D02*
X127513714Y-144623328D01*
X127513714Y-144623328D02*
X128442286Y-144623328D01*
X129013714Y-143266185D02*
X129085142Y-143194757D01*
X129085142Y-143194757D02*
X129228000Y-143123328D01*
X129228000Y-143123328D02*
X129585142Y-143123328D01*
X129585142Y-143123328D02*
X129728000Y-143194757D01*
X129728000Y-143194757D02*
X129799428Y-143266185D01*
X129799428Y-143266185D02*
X129870857Y-143409042D01*
X129870857Y-143409042D02*
X129870857Y-143551900D01*
X129870857Y-143551900D02*
X129799428Y-143766185D01*
X129799428Y-143766185D02*
X128942285Y-144623328D01*
X128942285Y-144623328D02*
X129870857Y-144623328D01*
X94020286Y-144623328D02*
X93163143Y-144623328D01*
X93591714Y-144623328D02*
X93591714Y-143123328D01*
X93591714Y-143123328D02*
X93448857Y-143337614D01*
X93448857Y-143337614D02*
X93306000Y-143480471D01*
X93306000Y-143480471D02*
X93163143Y-143551900D01*
X95448857Y-144623328D02*
X94591714Y-144623328D01*
X95020285Y-144623328D02*
X95020285Y-143123328D01*
X95020285Y-143123328D02*
X94877428Y-143337614D01*
X94877428Y-143337614D02*
X94734571Y-143480471D01*
X94734571Y-143480471D02*
X94591714Y-143551900D01*
X102407286Y-144623328D02*
X101550143Y-144623328D01*
X101978714Y-144623328D02*
X101978714Y-143123328D01*
X101978714Y-143123328D02*
X101835857Y-143337614D01*
X101835857Y-143337614D02*
X101693000Y-143480471D01*
X101693000Y-143480471D02*
X101550143Y-143551900D01*
X102978714Y-143266185D02*
X103050142Y-143194757D01*
X103050142Y-143194757D02*
X103193000Y-143123328D01*
X103193000Y-143123328D02*
X103550142Y-143123328D01*
X103550142Y-143123328D02*
X103693000Y-143194757D01*
X103693000Y-143194757D02*
X103764428Y-143266185D01*
X103764428Y-143266185D02*
X103835857Y-143409042D01*
X103835857Y-143409042D02*
X103835857Y-143551900D01*
X103835857Y-143551900D02*
X103764428Y-143766185D01*
X103764428Y-143766185D02*
X102907285Y-144623328D01*
X102907285Y-144623328D02*
X103835857Y-144623328D01*
X68445572Y-144115328D02*
X67588429Y-144115328D01*
X68017000Y-144115328D02*
X68017000Y-142615328D01*
X68017000Y-142615328D02*
X67874143Y-142829614D01*
X67874143Y-142829614D02*
X67731286Y-142972471D01*
X67731286Y-142972471D02*
X67588429Y-143043900D01*
D13*
%TO.C,R1*%
X74545000Y-36855000D02*
X81085000Y-36855000D01*
X74545000Y-37185000D02*
X74545000Y-36855000D01*
X74545000Y-39265000D02*
X74545000Y-39595000D01*
X74545000Y-39595000D02*
X81085000Y-39595000D01*
X81085000Y-36855000D02*
X81085000Y-37185000D01*
X81085000Y-39595000D02*
X81085000Y-39265000D01*
%TO.C,D2*%
X74845000Y-28039000D02*
X74845000Y-28195000D01*
X74845000Y-30355000D02*
X74845000Y-30511000D01*
X74845000Y-28039484D02*
G75*
G02*
X78077335Y-28196392I1560000J-1235516D01*
G01*
X75364039Y-28195000D02*
G75*
G02*
X77446130Y-28195163I1040961J-1080000D01*
G01*
X77446130Y-30354837D02*
G75*
G02*
X75364039Y-30355000I-1041130J1079837D01*
G01*
X78077335Y-30353608D02*
G75*
G02*
X74845000Y-30510516I-1672335J1078608D01*
G01*
%TO.C,D1*%
X74730000Y-59990000D02*
X74730000Y-64230000D01*
X74730000Y-64230000D02*
X76970000Y-64230000D01*
X75850000Y-59340000D02*
X75850000Y-59990000D01*
X75850000Y-64880000D02*
X75850000Y-64230000D01*
X76970000Y-59990000D02*
X74730000Y-59990000D01*
X76970000Y-60590000D02*
X74730000Y-60590000D01*
X76970000Y-60710000D02*
X74730000Y-60710000D01*
X76970000Y-60830000D02*
X74730000Y-60830000D01*
X76970000Y-64230000D02*
X76970000Y-59990000D01*
%TD*%
%LPC*%
D14*
%TO.C,R1*%
X74005000Y-38225000D03*
D15*
X81625000Y-38225000D03*
%TD*%
D16*
%TO.C,D2*%
X75135000Y-29275000D03*
D17*
X77675000Y-29275000D03*
%TD*%
D18*
%TO.C,D1*%
X75850000Y-58300000D03*
D15*
X75850000Y-65920000D03*
%TD*%
D19*
%TO.C,E1*%
X68244000Y-152025000D03*
X70814000Y-151925000D03*
X73384000Y-151925000D03*
X75954000Y-151925000D03*
X78524000Y-151925000D03*
X81075000Y-151925000D03*
X83664000Y-151925000D03*
X86234000Y-151925000D03*
X88804000Y-151925000D03*
X91374000Y-151925000D03*
X93844000Y-151925000D03*
X104000000Y-151925000D03*
X106570000Y-151925000D03*
X109140000Y-151925000D03*
X111682000Y-151925000D03*
X114299000Y-151925000D03*
X116850000Y-151925000D03*
X119406000Y-151925000D03*
X122023000Y-151925000D03*
X124560000Y-151925000D03*
X127130000Y-151925000D03*
X129700000Y-151925000D03*
D20*
X68244000Y-147025000D03*
X70814000Y-147025000D03*
X73384000Y-147025000D03*
X75954000Y-147025000D03*
X78524000Y-147025000D03*
X81075000Y-147025000D03*
X83664000Y-147025000D03*
X86234000Y-147025000D03*
X88804000Y-147025000D03*
X91374000Y-147025000D03*
X93844000Y-147025000D03*
X104000000Y-147025000D03*
X106620000Y-147025000D03*
X109140000Y-147025000D03*
X111682000Y-147025000D03*
X114299000Y-147025000D03*
X116850000Y-147025000D03*
X119406000Y-147025000D03*
X122023000Y-147025000D03*
X124560000Y-147025000D03*
X127130000Y-147025000D03*
X129700000Y-147025000D03*
%TD*%
D21*
%TO.C,J1*%
X108825000Y-28085000D03*
D22*
X108825000Y-30625000D03*
X108825000Y-33165000D03*
X108825000Y-35705000D03*
X108825000Y-38245000D03*
X108825000Y-40785000D03*
X108825000Y-43325000D03*
X108825000Y-45865000D03*
X108825000Y-48405000D03*
X108825000Y-50945000D03*
X108825000Y-53485000D03*
X108825000Y-56025000D03*
X108825000Y-58565000D03*
X108825000Y-61105000D03*
X108825000Y-63645000D03*
X108825000Y-66185000D03*
X108825000Y-68725000D03*
X108825000Y-71265000D03*
X108825000Y-73805000D03*
X108825000Y-76345000D03*
%TD*%
D23*
%TO.C,SW1*%
X127725000Y-30690000D03*
X120715000Y-30690000D03*
D24*
X126475000Y-28200000D03*
X121975000Y-28200000D03*
%TD*%
D21*
%TO.C,J2*%
X91050000Y-28085000D03*
D22*
X91050000Y-30625000D03*
X91050000Y-33165000D03*
X91050000Y-35705000D03*
X91050000Y-38245000D03*
X91050000Y-40785000D03*
X91050000Y-43325000D03*
X91050000Y-45865000D03*
X91050000Y-48405000D03*
X91050000Y-50945000D03*
X91050000Y-53485000D03*
X91050000Y-56025000D03*
X91050000Y-58565000D03*
X91050000Y-61105000D03*
X91050000Y-63645000D03*
X91050000Y-66185000D03*
X91050000Y-68725000D03*
X91050000Y-71265000D03*
X91050000Y-73805000D03*
X91050000Y-76345000D03*
%TD*%
%LPD*%
M02*
