%TF.GenerationSoftware,KiCad,Pcbnew,8.0.4*%
%TF.CreationDate,2024-08-11T18:13:53+02:00*%
%TF.ProjectId,PiChannelF,50694368-616e-46e6-956c-462e6b696361,1*%
%TF.SameCoordinates,Original*%
%TF.FileFunction,Paste,Top*%
%TF.FilePolarity,Positive*%
%FSLAX46Y46*%
G04 Gerber Fmt 4.6, Leading zero omitted, Abs format (unit mm)*
G04 Created by KiCad (PCBNEW 8.0.4) date 2024-08-11 18:13:53*
%MOMM*%
%LPD*%
G01*
G04 APERTURE LIST*
G04 Aperture macros list*
%AMRoundRect*
0 Rectangle with rounded corners*
0 $1 Rounding radius*
0 $2 $3 $4 $5 $6 $7 $8 $9 X,Y pos of 4 corners*
0 Add a 4 corners polygon primitive as box body*
4,1,4,$2,$3,$4,$5,$6,$7,$8,$9,$2,$3,0*
0 Add four circle primitives for the rounded corners*
1,1,$1+$1,$2,$3*
1,1,$1+$1,$4,$5*
1,1,$1+$1,$6,$7*
1,1,$1+$1,$8,$9*
0 Add four rect primitives between the rounded corners*
20,1,$1+$1,$2,$3,$4,$5,0*
20,1,$1+$1,$4,$5,$6,$7,0*
20,1,$1+$1,$6,$7,$8,$9,0*
20,1,$1+$1,$8,$9,$2,$3,0*%
G04 Aperture macros list end*
%ADD10R,1.900000X8.100000*%
%ADD11RoundRect,0.233760X-0.716240X-0.766240X0.716240X-0.766240X0.716240X0.766240X-0.716240X0.766240X0*%
G04 APERTURE END LIST*
D10*
%TO.C,E1*%
X68244000Y-152025000D03*
X70814000Y-151925000D03*
X73384000Y-151925000D03*
X75954000Y-151925000D03*
X78524000Y-151925000D03*
X81075000Y-151925000D03*
X83664000Y-151925000D03*
X86234000Y-151925000D03*
X88804000Y-151925000D03*
X91374000Y-151925000D03*
X93844000Y-151925000D03*
X104000000Y-151925000D03*
X106570000Y-151925000D03*
X109140000Y-151925000D03*
X111682000Y-151925000D03*
X114299000Y-151925000D03*
X116850000Y-151925000D03*
X119406000Y-151925000D03*
X122023000Y-151925000D03*
X124560000Y-151925000D03*
X127130000Y-151925000D03*
X129700000Y-151925000D03*
D11*
X68244000Y-147025000D03*
X70814000Y-147025000D03*
X73384000Y-147025000D03*
X75954000Y-147025000D03*
X78524000Y-147025000D03*
X81075000Y-147025000D03*
X83664000Y-147025000D03*
X86234000Y-147025000D03*
X88804000Y-147025000D03*
X91374000Y-147025000D03*
X93844000Y-147025000D03*
X104000000Y-147025000D03*
X106620000Y-147025000D03*
X109140000Y-147025000D03*
X111682000Y-147025000D03*
X114299000Y-147025000D03*
X116850000Y-147025000D03*
X119406000Y-147025000D03*
X122023000Y-147025000D03*
X124560000Y-147025000D03*
X127130000Y-147025000D03*
X129700000Y-147025000D03*
%TD*%
M02*
