<svg xmlns="http://www.w3.org/2000/svg" height="800" width="1200" viewBox="-14.6844 -4.7625 127.2648 28.575"><path fill="#fff" d="M0 0h97.896v19.05H0z"/><path d="M23.339 14.909v-11.5H20.29v4.779h-3.692V3.409h-2.949v12.128h2.949v-4.601h3.692v4.6h2.812"/><path d="M28.766 3.41l-6.375 12.127h3.132l2.396-4.64h2.736v4.64h2.63V3.409zm.687 4.55l1.196-2.084.006 2.084zm4.987-4.55v12.127h2.949V9.23l4.37 6.302v.005H44.4V3.409h-3.048v6.492l-4.59-6.492-.013.014-.003-.014zm21.988 0v12.127h6.968v-2.835h-3.82v-1.655h3.643V7.9h-3.642V6.244h3.82V3.41zm7.867 0v12.127h6.437v-2.835h-3.489V3.41zM8.656 3.273a6.252 6.252 0 000 12.503c2.008-.048 3.629-.849 4.636-2.087l-2.203-2.153c-.568.845-1.652 1.164-2.41 1.175a3.087 3.087 0 010-6.174c.962.044 1.487.248 2.136.901l.026-.023.021.02 2.386-2.147c-1.239-1.281-2.884-2-4.592-2.015zm36.884.137v12.127h2.949V9.23l4.37 6.302v.005H55.5V3.409h-3.048v6.492l-4.59-6.492-.013.014-.003-.014zm49.202-.864h-.452v1.203h-.18V2.546h-.45v-.163h1.082zm1.481 1.203h-.173v-1.16l-.39 1.16h-.162l-.39-1.16v1.16h-.171V2.383h.273l.368 1.138.373-1.138h.272z"/><path fill="red" d="M79.708 2.993v13.06h3.36v-4.961h4.227V8.044h-4.227v-2.07h4.227V2.993z"/><path stroke-width=".176" stroke-linejoin="round" stroke="#000" fill="none" d="M83.485 1.52c3.07.021 8.809.455 9.473 1.216.74.848 1.244 4.501 1.221 6.794-.023 2.293-.488 6.4-1.487 6.972-1.088.622-6.14 1.117-9.207 1.092-3.067-.025-8.253-.297-9.317-1.092-.881-.614-1.487-4.722-1.435-6.972.051-2.25.233-5.773 1.291-6.768.918-.81 6.507-1.264 9.461-1.243z"/></svg>